<?xml version="1.0" encoding="UTF-8"?>
<!DOCTYPE svg PUBLIC "-//W3C//DTD SVG 1.1//EN" "http://www.w3.org/Graphics/SVG/1.1/DTD/svg11.dtd">
<!-- Creator: CorelDRAW 2019 (64-Bit) -->
<svg xmlns="http://www.w3.org/2000/svg" xml:space="preserve" width="423.333mm" height="423.333mm" version="1.1" style="shape-rendering:geometricPrecision; text-rendering:geometricPrecision; image-rendering:optimizeQuality; fill-rule:evenodd; clip-rule:evenodd"
viewBox="0 0 42333.32 42333.32"
 xmlns:xlink="http://www.w3.org/1999/xlink"
 xmlns:xodm="http://www.corel.com/coreldraw/odm/2003">
 <defs>
  <style type="text/css">
   <![CDATA[
    .fil0 {fill:white}
    .fil62 {fill:#E5E5E5}
    .fil51 {fill:#7F7F7F}
    .fil72 {fill:white}
    .fil57 {fill:#110C08}
    .fil13 {fill:#171717}
    .fil58 {fill:#2F2418}
    .fil32 {fill:#303030}
    .fil37 {fill:#335295}
    .fil28 {fill:#351704}
    .fil67 {fill:#3A0309}
    .fil16 {fill:#458AC2}
    .fil35 {fill:#4685BA}
    .fil38 {fill:#4997CD}
    .fil11 {fill:#4CA7DA}
    .fil12 {fill:#4D4D4D}
    .fil30 {fill:#50B3E5}
    .fil44 {fill:#573519}
    .fil42 {fill:#624323}
    .fil9 {fill:#666666}
    .fil56 {fill:#702E0F}
    .fil29 {fill:#748DAF}
    .fil43 {fill:#777878}
    .fil15 {fill:#7AD1F6}
    .fil36 {fill:#8498B5}
    .fil50 {fill:#868788}
    .fil21 {fill:#88D3F6}
    .fil24 {fill:#8B9DB6}
    .fil41 {fill:#8C633A}
    .fil5 {fill:#93A4BC}
    .fil47 {fill:#956D48}
    .fil25 {fill:#959798}
    .fil49 {fill:#95AFC6}
    .fil39 {fill:#97A8AB}
    .fil22 {fill:#9AAABE}
    .fil45 {fill:#9CACC1}
    .fil69 {fill:#A40F20}
    .fil6 {fill:#A4B2C3}
    .fil4 {fill:#A6B5C5}
    .fil10 {fill:#A9B6C6}
    .fil55 {fill:#AA6757}
    .fil63 {fill:#ABE3FF}
    .fil33 {fill:#ACBBD3}
    .fil59 {fill:#C59C7E}
    .fil64 {fill:#CAD7E6}
    .fil60 {fill:#D48C55}
    .fil17 {fill:#D98D54}
    .fil61 {fill:#DC9358}
    .fil66 {fill:#DDDDDD}
    .fil20 {fill:#E3ECF3}
    .fil19 {fill:#E49D65}
    .fil2 {fill:#E4EDF4}
    .fil27 {fill:#E4EEF5}
    .fil40 {fill:#EBA977}
    .fil70 {fill:#EFA777}
    .fil68 {fill:#F1F1F1}
    .fil65 {fill:#F2AA6F}
    .fil53 {fill:#F2E4DA}
    .fil48 {fill:#F2F6FA}
    .fil34 {fill:#F3AD7A}
    .fil7 {fill:#F6B17D}
    .fil23 {fill:#F7B789}
    .fil31 {fill:#F7C39B}
    .fil26 {fill:#F8BC94}
    .fil71 {fill:#F9A57A}
    .fil18 {fill:#FADCC4}
    .fil8 {fill:#FBC6A2}
    .fil14 {fill:#FBFBFB}
    .fil54 {fill:#FBFCF9}
    .fil1 {fill:#FCC8A3}
    .fil46 {fill:#FCD6B7}
    .fil3 {fill:#FEFEFE}
    .fil74 {fill:black;fill-rule:nonzero}
    .fil52 {fill:url(#id0)}
    .fil73 {fill:url(#id1);fill-rule:nonzero}
   ]]>
  </style>
  <linearGradient id="id0" gradientUnits="userSpaceOnUse" x1="17517.68" y1="24199.95" x2="17846.99" y2="22726.51">
   <stop offset="0" style="stop-opacity:1; stop-color:#CCCCCC"/>
   <stop offset="0.509804" style="stop-opacity:1; stop-color:white"/>
   <stop offset="1" style="stop-opacity:1; stop-color:#CCCCCC"/>
  </linearGradient>
  <linearGradient id="id1" gradientUnits="userSpaceOnUse" x1="22137.87" y1="35037.67" x2="21808.87" y2="29775.93">
   <stop offset="0" style="stop-opacity:1; stop-color:#565ACF"/>
   <stop offset="1" style="stop-opacity:1; stop-color:#9C99E5"/>
  </linearGradient>
 </defs>
 <g id="Layer_x0020_1">
  <metadata id="CorelCorpID_0Corel-Layer"/>
  <g id="_2085227699264">
   <polygon class="fil0" points="15693.92,13726.41 14455.65,14988.93 12671.2,15531.96 10119.83,16537.38 9054.45,18413.14 9351.4,23255.23 10387.85,28179.18 11263.47,29712.29 14541.23,32240.91 23225.46,32756.17 26496.06,31412.18 29733.23,29649.07 30893.48,29485.9 31035.55,28414.48 30644.86,27023.4 30407.22,26431.26 30025.38,25550.81 28956.22,22913.81 28520.38,21709.1 28088.25,20471.89 27172.98,18179.56 26124.91,16905.21 24538.08,16152.59 23157.07,15857.09 22213.93,15661.1 21441.59,14464.04 19486.69,14302.01 17010.05,13899.16 15792.6,13625.44 "/>
   <g>
    <polygon class="fil1" points="18124.19,3922.31 16088.65,5520.11 15824.72,7912.48 15466.11,8335.64 16015.68,10174.03 16314.11,11501.76 15866.6,14107.69 16964.87,15755.09 18690.71,16472.34 20203.64,16393.88 20932.09,15934.4 20911.51,14306.64 21158.08,13281.64 22004.88,11649.55 22485.15,9677.98 23029.12,6730.62 22291.99,4734.1 20791.68,4326.42 19558.55,4170.4 18298.15,3960.03 "/>
    <path class="fil2" d="M22213.93 15661.1c251.93,494.64 503.86,989.3 755.78,1483.94 408.22,1098.74 780.27,2274.99 1188.48,3373.77 308.86,421.38 653.9,765.31 962.76,1186.71 21.47,260.36 42.97,520.72 64.44,781.08 -1.1,704.01 -2.17,1408.01 -3.26,2112.01 180.41,192.2 360.81,384.38 541.22,576.58 309.14,192.2 618.25,384.42 927.38,576.62 467.92,27.49 935.86,54.99 1403.78,82.48 415.86,194.82 831.74,389.64 1247.59,584.47 75.96,-149.06 151.88,-298.13 227.84,-447.19 -352.57,-2514.31 -1202.06,-5678.61 -2312.31,-7711.64 -1197.45,-2192.9 -2810.16,-2091.51 -5003.7,-2598.83z"/>
    <path class="fil2" d="M16952.24 22912.54c-52.4,9.87 -104.8,19.73 -157.2,29.6 -57.46,-337.46 -1138.2,-3995.63 -1242.94,-4170.12l-0.01 0 -0.01 -0.04 -103.29 -459.12c-236.09,-540.54 -418.67,-1120.24 -621.53,-1674.78 -96.49,-263.85 -196.15,-571.56 -281.34,-840.61 -117.88,-372.14 -219.31,-605.23 -21.38,-957.15 -849.3,486.03 -1871.6,746.77 -2816.84,1010.94 -387.54,142.03 -845.09,248.05 -1142.56,548.95 -1268.07,628.89 -1495.04,2208.28 -1511.6,3485.5 6.09,348.82 94.91,1691.62 222.79,1948.16 8.88,-39.37 17.77,-78.74 26.65,-118.11 -87.8,-1212.52 -164.9,-2458.94 198.97,-3638.38 365.22,-1183.84 976.39,-1541.34 2105.98,-1872.05 49.2,-14.39 1113.16,-375.56 900.94,-269.71 -1289.42,643.29 -918.82,-87.79 -2074.95,1810.39 -798.3,1310.61 17.54,3583.27 264.23,4989.39 87.79,500.36 318.56,1139.72 370.8,1566.33 78.32,639.97 -466.7,704.95 -563.84,1187.69 -233.62,1160.51 1960.71,1129.38 1330.88,1911.53 -1230.63,1528.28 650.16,1151.65 1545.11,1173.32 1623.36,251.09 2689.53,973.76 4394.68,589.26 1245.76,-280.89 2735.63,-766.48 3888.78,-1314.61 288.47,-137.15 1500.82,-864.51 664.88,56.45 -48.58,53.46 -527.01,501.15 -395.41,542.42 247.88,77.73 1465.24,-569.73 1723.82,-713.69 166.5,-92.68 592.09,-428.41 742.95,-233.05 426.86,552.89 -716.03,1134.48 -1047.45,1357.98 577.24,-365.44 1138.17,-587.57 1306.43,-887.43 84,-149.7 -55.88,-283.03 -114.69,-660.94 -172.01,-1105.78 -988.28,82.55 -1511.93,17.24 -432.74,-54.02 609.89,-1411.17 -897.43,-1295.73 -825.82,63.21 -1371.84,379.79 -2039.67,812.73 -1283.76,832.35 -2790.14,1332.85 -4322.11,1393.72 -660.07,26.21 -1932.42,-51.63 -2541.98,-295.79 -621.81,-249.12 825.76,-968.69 1058.43,-1102.08 -221.7,8.59 -524.77,63.88 -722.75,-17.73 -32.07,-310.48 238.1,-310.02 350.42,-480.32 -270.04,-48.8 -540.07,-97.6 -810.11,-146.4 -414.08,-104.12 -860.9,-15.72 -1096.53,-91.77 -88.46,-398.97 743.56,-657.83 1028.5,-764.45 -270.85,-54.06 -273.89,-328.67 -227.68,-428.03 -408.19,12.92 -953.11,-179.59 -731.54,-691.88 215.66,-498.76 516.77,-614.24 95.67,-1181.83 -457.61,-616.87 -1098.57,-1424.56 -1318.43,-2154.98 -69.23,-230.05 -120.2,-512.89 -123.81,-752.85 -5.2,-348.62 77.07,-361.12 370.87,-449.91 596.93,-180.38 118.11,-747.38 -38.1,-1066.78 -292.89,-598.81 289.04,-569.73 680.44,-162.1 283.08,294.82 475,678.74 713.2,1011.28 14.83,-15.73 29.67,-31.46 44.5,-47.19 411.4,378 1016.01,1994.95 1270.23,2585.12 418.92,865.62 837.85,1731.25 1256.77,2596.87 293.6,98.21 1116.19,559.48 1287.91,792.03 249,93.5 983.24,711.97 1113.21,937.77 488.5,-96.05 3944.72,-995.21 4174.1,-1150.81 13.07,-186.47 -198.92,-461.55 -302,-624.64 -127.1,-201.14 -224.19,-499.6 -442.73,-595.32 -25.4,-31.61 -50.81,-63.21 -76.21,-94.82 -619.21,-1034.54 -1796.43,-1721.65 -2879.28,-2569.28 -398.89,-312.22 -832.35,-401.11 -385.42,-960.55 502.48,-628.99 1220.98,-688.54 -1001.24,-1451.02 -806.88,-276.87 -275.16,-1268.43 -435.62,-2133.41 -41.01,-221.01 -6.32,-180.08 131.83,-367.03 -48.56,-74.45 -97.13,-148.9 -145.69,-223.35 -442.27,-649.06 -630.32,-1442.47 -541.58,-2214.81 0,0 0,-0.01 0,-0.01 126.41,-123.81 123.08,-198.87 173.38,-369.37 -64.26,80.01 -128.51,160.01 -192.77,240.02 -6.83,32.72 -13.67,65.44 -20.5,98.16 0,0 0.01,0 0.01,0 0,0 0,0.01 0,0.01 -38.52,67.32 -77.04,134.65 -115.56,201.97 -338.89,450.9 -363.16,624.89 -275.64,1214.99 60.54,407.81 187.36,860.6 285.01,1265.81 159.65,662.08 404.04,1759.09 664.68,2358.46 381.05,132.19 762.11,264.39 1143.16,396.58 -379.38,-108.65 -758.77,-217.3 -1138.15,-325.95 187.85,632.86 387.82,1267.97 584.98,1898.7 157.16,502.63 377.07,1346.95 594.15,1794.42 -93.28,65.4 -186.56,130.79 -279.84,196.19zm-2636.5 -7636.63c-4.74,-14.21 -9.21,-27.4 -13.39,-39.45 4.18,12.05 8.66,25.23 13.39,39.45z"/>
    <path class="fil3" d="M21472.6 17231.95l3.83 308.44 -23.27 3276.33 -19.06 2845.2c-108.79,-51.52 -845.03,-1211.63 -899.37,-1382.74l-156.82 -219.14 -171.61 -179.98c-125.69,-285.05 -360.4,-470.46 -465.98,-775.24 -229.49,-184.73 -978.59,-1335.38 -1205.09,-1659.54 -377.35,-540.1 -892.68,-1121.9 -1228.14,-1652.96l-440.66 -570 -649.83 -841.61c-138.15,186.96 -172.83,146.02 -131.84,367.05 160.48,864.97 -371.25,1856.52 435.62,2133.38 2222.24,762.5 1503.73,822.05 1001.25,1451.05 -446.92,559.42 -13.46,648.33 385.43,960.53 1082.84,847.64 2260.07,1534.75 2879.27,2569.28l76.22 94.84c218.53,95.72 315.63,394.18 442.71,595.32 103.09,163.08 315.08,438.16 302.01,624.62 -229.39,155.6 -3685.59,1054.76 -4174.11,1150.81l-982.74 94 -576.04 41.94 -634.87 105.47 -250.11 41.43 -103.69 5.1 -595.32 225.23c-232.66,133.39 -1680.21,852.96 -1058.42,1102.06 609.56,244.18 1881.9,322.01 2541.98,295.81 1531.97,-60.88 3038.36,-561.37 4322.11,-1393.72 667.83,-432.95 1213.85,-749.53 2039.67,-812.74 1507.32,-115.44 464.7,1241.72 897.43,1295.73 523.64,65.3 1339.93,-1123.01 1511.93,-17.23 76.11,489.24 47.19,748.92 -146.3,925.8 -85.92,78.55 -252.65,125.63 -374.63,195.21 -192.71,109.95 -397.56,255.81 -670.82,427.36l-446.92 202.8c-428.36,347.65 -2035.89,935.71 -2624.23,1159.17 -256.26,97.33 -2598.26,1025.34 -2627.34,1056.09l356.63 -85.36 1287.02 -506.08 131.23 -1c208,-131.89 2241.57,-906.8 2443.37,-914.55 74.06,-79.72 1473.65,-775.8 1730.45,-917.72 713.87,-394.51 1352.06,-476.39 1010.39,-1474.92l-31.13 -276.91 -75.11 -438.89c-400,-534.27 -271.88,-1067.11 -1062.96,-1533.75l-315.14 -101.59c-91.34,-2.49 -95.94,54.34 -63.09,-34.01 -186.57,-57 -225.23,-17.06 -298.19,-189.67 -55.39,151.56 -696.46,280.57 -810.08,244.29 -331.31,-666.61 219.09,-1871.1 439.39,-2558.82 264.61,-826.09 565.57,-1613.57 716.91,-2470.57 -74.79,-204.01 -272.82,-281.07 -407.7,-478.16 -171.72,-35.56 -308.77,-171.44 -357.9,-338.46 89.57,-147.34 337.57,-403.65 516.38,-449.52l392.69 -404.38 -594.16 -1397.42 -4.49 -130.45 -69.13 -147.07 -200.97 -501.54c-267.27,-524.97 -790.69,-1243.43 -1259.43,-1590.2 270.65,1128.44 315.24,1477.75 342.77,2651.6z"/>
    <path class="fil1" d="M19928.33 11684.25c-124.41,-185.35 -108.24,-524.42 189.12,-492.57l-189.12 492.57zm495.61 -666.12c-828.97,316.58 -731.7,-431.24 -1216.73,-192.1l-95.55 60.54c-76.34,-180.75 -76.06,-142.53 4.37,-303.28l210.33 -236.48c-16.01,298.13 276.2,525.08 551.45,436.62 231.1,-166.9 -164.02,-658.19 403.82,-1251.02 -0.44,-224.9 -8.03,-410.14 33.02,-633.87 35.12,-191.5 68.69,-424.87 269.99,-348.37 32.02,137.54 -66.59,432.79 -71.79,616.7 -6.32,225.06 18.39,498.76 42.82,724.22 25.98,239.58 229.49,1195.23 -131.73,1127.04zm645.28 -5943.66l-90.4 58.61 -118.15 -40.44 -187.24 20.33c-218.97,135.11 -694.91,48.75 -964.07,86.36l-273.26 3.21c-344.11,296.08 -928.29,-121.98 -1279.71,908.96 -289.05,847.81 -197.87,1072.87 522.2,1479.41 -183.36,-109.13 -239.8,-105.69 -405.65,-2.72l393.57 116.61 446.14 141.59 244.57 82.26c204.9,118.87 369.25,363.71 130.17,518.48l-190.55 -120.2 -19.78 20.94c-178.14,122.97 -43.26,135.66 -236.64,225.51l-1.27 -85.26 40.32 -39.93 -29.02 -2.83 -195.43 -197.53c-759.73,-284.67 -701.29,-76.56 -849.58,42.21 -170.12,-103.37 -404.99,-16.01 -512.67,318.4 -753.03,-18.89 -685.23,930.4 -610.28,1478.35 89.85,657.64 503.98,598.7 526.3,1612.97 18.61,848.58 606.9,1479.74 1259.38,1990.3 187.95,147.02 508.74,296.42 609.11,375.52 -598.75,-23.54 -601.13,-145.36 -1087.71,-296.41 347.76,232.82 309.76,292.75 780.83,341.44 241.91,24.99 854.73,119.05 1049.11,1.28l-40.49 -14.29c387.59,-180.59 420.93,-353.25 705.33,-587.62 216.64,-205.51 1175.9,-1571.75 1320.53,-1860.41 350.59,-699.52 353.09,-1883.28 551.23,-2675.09 -159.98,78.94 -176.93,125.19 -341.67,47.86l-82.15 -47.86c108.13,93.84 89.07,-161.53 -253.48,-379.83 38.11,-189.73 -424.43,-216.59 -555.88,-192.55 -361.95,66.25 -302.51,246.78 -507.69,280.85 -78.66,-109.46 -76.72,-79.22 10.25,-204.24 -29.75,-209.61 239.14,-274.26 449.74,-360.95l220.64 -73.34 212.21 -46.86 93.73 32.07c216.65,-41.93 313.47,-124.97 497.83,8.7l198.2 8.14c-142.64,-180.92 -328.05,-212.71 -303.45,-417.06 161.8,-126.58 141.58,-56.73 338.12,-107.25 294.53,-588.39 -568.12,-1713.66 -42.1,-1995.45 -113.11,-283.79 -311.03,-606.84 -617.31,-692.54 -430.08,230.22 -265.11,206.84 -803.88,240.3z"/>
    <path class="fil4" d="M13381.09 28574.26c-670.26,291.21 -172.44,72.9 -419.38,427.42 -225.79,-16.73 -182.69,-219.86 -372.81,-222.57 -92.06,140.48 517.27,688.65 602.91,707.99 116.55,-83.43 19.83,-122.53 11.41,-269.49l319.85 59.71c1.61,183.13 -187.4,182.3 -126.69,616.81 37.39,268.05 52.74,155.99 152.72,354.47l305.39 1154.8c87.58,338.18 368.09,411.3 81.6,684.06 552.44,238.69 668.1,176.65 1208.53,-20.17l5504.16 -2137.98c739.62,-298.63 1491.99,-646.51 2257.64,-867.47l446.92 -202.8c331.42,-223.51 1474.31,-805.1 1047.45,-1357.98 -150.84,-195.38 -576.43,140.37 -742.95,233.04 -258.58,143.97 -1475.92,791.41 -1723.8,713.7 -131.62,-41.27 346.82,-488.97 395.4,-542.42 835.95,-920.98 -376.4,-193.6 -664.9,-56.45 -1153.13,548.12 -2643.01,1033.71 -3888.76,1314.61 -1705.14,384.49 -2771.31,-338.18 -4394.69,-589.28z"/>
    <path class="fil5" d="M9302.99 21715.76c90.79,1025.4 247.44,2130.84 447.31,3140.9 98.43,497.55 281.84,951.89 385.48,1438.91 126.08,592.77 101.93,889.02 317.74,1510.15 336.69,969.12 611.72,1594.8 1131.7,2479.88 536.77,913.78 809.31,1375.99 1851.27,1765.52l499.6 36.34c286.49,-272.76 5.98,-345.88 -81.6,-684.06l-305.39 -1154.8c-99.98,-198.48 -115.33,-86.42 -152.72,-354.47 -60.71,-434.51 128.3,-433.68 126.69,-616.81l-319.85 -59.71c8.42,146.96 105.14,186.06 -11.41,269.49 -85.64,-19.34 -694.97,-567.51 -602.91,-707.99 190.12,2.71 147.02,205.84 372.81,222.57 246.94,-354.52 -250.88,-136.21 419.38,-427.42 -894.94,-21.66 -2775.73,354.96 -1545.1,-1173.3 629.83,-782.16 -1564.49,-751.03 -1330.9,-1911.54 97.16,-482.75 642.19,-547.73 563.86,-1187.7 -52.24,-426.59 -283.01,-1065.94 -370.81,-1566.32 -246.67,-1406.12 -1062.51,-3678.77 -264.23,-4989.39 1156.13,-1898.19 785.54,-1167.1 2074.95,-1810.39 212.21,-105.85 -851.74,255.31 -900.93,269.72 -1129.59,330.7 -1740.75,688.21 -2105.97,1872.04 -363.88,1179.45 -286.77,2425.87 -198.97,3638.38z"/>
    <path class="fil2" d="M26265.46 26323.82l-10.31 61.99 461.6 150.06c-18.17,13.85 -910.12,251.27 -1103.11,339.01 -321.07,145.97 -694.64,389.76 -999.7,502.59 341.67,998.53 -296.52,1080.41 -1010.39,1474.92 -256.8,141.92 -1656.39,838 -1730.45,917.72 579.15,20.6 5205.04,-2.77 5909.88,-58.11 384.65,-30.19 1475.64,-301.96 1708.51,18.11 17.06,213.43 -86.52,254.43 -195.37,423.16 1296.94,-811.58 1505.66,-1741.98 390.41,-2871.41 -346.32,-350.75 -975.65,-735.57 -1439.08,-904.97 -914.61,-334.41 -1215.67,-16.84 -1981.99,-53.07z"/>
    <path class="fil6" d="M21873.11 29770.11c-201.8,7.74 -2235.37,782.66 -2443.38,914.54l-131.23 1 -4.71 223.19c153.15,76.39 128.07,49.98 300.35,37.88 296.96,171.72 1258.06,57.56 1646.92,113.67l79.44 222.36 16.89 -238.58 167.06 -10.19c603.7,21.93 4058.23,-103.36 4302.39,40.7l74.58 2048.41 119.25 0c-47.86,-470.18 -192.76,-1667.12 -56.39,-2072.38 318.31,-75.01 836.83,-30.82 1213.8,-96.78 406.81,-71.24 663.07,-160.31 1051.98,-268.72 199.43,-74.5 400.29,-150.07 587.5,-250.98 168.18,-90.63 316.7,-226.84 498.56,-280.97 108.86,-168.71 212.42,-209.72 195.38,-423.14 -232.87,-320.09 -1323.88,-48.32 -1708.53,-18.13 -704.82,55.34 -5330.71,78.73 -5909.86,58.12z"/>
    <path class="fil7" d="M15888.06 9095.19c159.59,62.09 93.62,132.78 161.42,314.69 58.88,157.82 106.74,224.96 13.79,399.56 -191,-106.47 -308.71,-550.62 -175.21,-714.25zm-191.89 -1110.71l-58.6 -78.55 -48.69 90.68c-416.68,171.34 -118.33,911.57 -4.32,1220.17 88.63,239.96 102.86,401.27 158.64,641.79 80.4,346.72 118.63,551.67 397.22,542.32 25.45,-0.85 52.92,-3.5 82.61,-7.99 8.72,36.83 15.49,81.45 20.97,132.18 44.42,410.59 5.8,1221.36 254.78,1538.67 221.02,281.62 875.56,803.71 969.17,1042.29 197.48,31.86 531.01,441.83 581.75,636.98 46.64,8.7 93.23,17.45 139.87,26.15 486.58,151.05 488.96,272.87 1087.71,296.41 -100.37,-79.1 -421.16,-228.5 -609.11,-375.52 -652.48,-510.56 -1240.77,-1141.72 -1259.38,-1990.3 -22.32,-1014.27 -436.45,-955.33 -526.3,-1612.97 -74.95,-547.95 -142.75,-1497.24 610.28,-1478.35 22.65,-34.51 45.25,-68.97 67.91,-103.48 171.22,-119.09 199.42,-136.1 409.86,-154.71 236.42,-183.74 778.18,-96.28 904.36,175.65 55.62,44.26 111.18,88.52 166.79,132.78 193.38,-89.85 109.19,-227.94 287.33,-350.92 -102.25,-67.25 -204.51,-134.55 -306.77,-201.8 -179.42,-23.54 -372.75,-80.21 -506.8,-203.24 -193.05,-2.44 -450.02,36.84 -615.65,-63.09 -192.33,5.15 -384.6,10.36 -576.93,15.51 -68.35,5.98 -136.71,12.02 -205.06,18 125.35,-107.35 303.06,-147.85 429.58,-203.35 171.77,-125.47 354.46,-19.55 559.92,-2.94 91.07,23.27 182.19,46.53 273.26,69.8 165.85,-102.98 114.66,-254.87 298.02,-145.74 -720.07,-406.54 -811.25,-631.6 -522.2,-1479.41 351.42,-1030.94 935.6,-612.88 1279.71,-908.96 91.07,-1.05 182.19,-2.16 273.26,-3.21 -328.99,-160.37 -926.02,-65.92 -1255.29,-266.72 -440.77,6.81 -623.4,-239.14 -873.67,-273.21 21.94,49.47 43.87,98.94 65.81,148.4 -68.3,-32.4 -136.6,-64.86 -204.9,-97.27 20.82,40.94 41.6,81.87 62.43,122.81 -229.45,128.02 -308.94,-133.44 -521.93,191.16 -284.78,434.15 -370.95,774.39 -164.52,1302.87 27.98,-14.73 55.9,-29.52 83.87,-44.26 21.38,87.03 42.71,174.1 64.09,261.13 -52.35,815.79 -339.56,717.46 -457.06,1292.78 -72.89,356.96 69.64,1337.05 -124.24,1546.44 -77.83,-138.65 -56.62,-551.17 -207.23,-844.04 -131.62,-255.87 -257.42,-385.49 -480.55,-554.94zm122.48 344.05c64.48,57.84 77.05,133.84 72.29,215.43l-277.91 -196.7c47.64,-23.93 59.6,-149.62 205.62,-18.73zm1685.09 -3495.19l100.54 105.97 -100.54 -105.97zm142.47 -25.54l102.81 82.26 -102.81 -82.26z"/>
    <path class="fil3" d="M12812.25 24912.05l109.18 -262.62c140.98,-134 177.38,-70.96 380.12,-69.35 -172.39,-320.35 -35.51,-415.85 279.41,-380.45l279.46 68.19c-137.55,-792.52 -380.39,-1483.45 -780.5,-2181.36 -379.06,-661.24 -1204.1,-1424.79 -1184.11,-1636.56 176.82,-8.58 820.17,672.71 982.69,679.35 31.14,-179.47 -360.22,-1368.67 -417.94,-1666.25 -238.2,-332.53 -430.14,-716.46 -713.2,-1011.27 -391.41,-407.64 -973.33,-436.73 -680.46,162.08 156.21,319.4 635.04,886.42 38.11,1066.78 -293.81,88.8 -376.07,101.32 -370.86,449.91 3.6,239.97 54.56,522.81 123.8,752.86 219.86,730.42 860.83,1538.12 1318.44,2154.99 421.1,567.57 119.98,683.06 -95.67,1181.83 -221.58,512.29 323.33,704.78 731.53,691.87z"/>
    <path class="fil2" d="M18011.48 31191.74l103.81 136.6c-274.15,460.93 -1173.8,341.78 -1387.96,708.65 195.43,252.16 668.44,140.09 740.62,520.54 -203.63,412.85 -885.97,129.51 -1111.15,565.57l4968.79 0c4.32,-324.94 13.46,-641.29 115.66,-951.5 158.7,-481.48 -71.07,-478.83 -120.76,-888.85l-79.43 -222.35c-388.87,-56.12 -1349.95,58.05 -1646.92,-113.67 -172.28,12.07 -147.18,38.5 -300.35,-37.89l4.71 -223.18 -1287.02 506.08z"/>
    <path class="fil0" d="M24957.66 21705.3l-86.02 -211.61c-148.03,-578.92 -585.36,-918.03 -1110,-552.43 -397.11,276.81 -652.37,794.73 -774.07,1258.98l-107.08 581.59 -32.12 667.99 218.13 1542.49c-32.83,88.36 -28.25,31.53 63.09,34.03 155.68,-216.6 421.05,-174.5 664.47,-143.58 248.88,-184.81 1208.48,-298.95 1518.07,-276.25l-189.63 -2155.06 -164.84 -746.15zm4123.26 4380.38c-533.84,-180.41 -908.58,-311.25 -1491.99,-230.99 -324.44,44.65 -1091.2,248.67 -1323.47,469.14 766.31,36.22 1067.39,-281.35 1981.99,53.05 463.43,169.41 1092.76,554.22 1439.08,905 1115.25,1129.41 906.52,2059.82 -390.41,2871.38 -181.86,54.13 -330.38,190.34 -498.56,280.97 -187.21,100.91 -388.07,176.48 -587.5,250.98l127.58 49.59 1198.61 -269.45c337.23,-27.74 693.97,-235.14 964.19,-431.06l31.73 -16.96c824.23,-1084.46 255.32,-2418.02 -121.08,-3568.75 -142.97,-97.45 -213.37,-181.47 -194.93,-365.73 -370.82,-403.98 -356.36,-1161.27 -616.92,-1718.54 -260.46,-556.91 -480.45,-989.93 -690.04,-1579.83 -675.1,-1585.44 -1264.38,-3639.45 -2240.69,-5047.61 -891.8,-1286.26 -3604.28,-1805.07 -1925.82,-1072.99 1783.67,777.97 1702.37,1487.39 2290.2,3094.43 165.35,452.02 404.98,811.08 588.29,1241.33 179.9,422.42 301.67,903.31 439.82,1343.97 142.46,454.55 308.99,931.23 438.83,1384.91 177.3,619.79 -355.18,522.06 -625.96,747.3 -279.74,232.72 550.34,539.31 702.25,635.44 449.22,284.32 541.07,469.62 504.8,974.42z"/>
    <path class="fil2" d="M21586.05 33123.1l3279.27 0c-24.76,-352.86 72.01,-570.67 60.66,-844.42 -15.4,-373.14 -173.33,-341.67 -360.56,-525.75 33.62,-200.52 122.08,-243.84 287.1,-345.38 549.4,-338.01 -183.13,-307.27 954.33,-332.86 -244.18,-144.08 -3698.71,-18.78 -4302.39,-40.72 -176.1,429.09 271.65,391.36 206.12,943.53 -45.87,386.48 -85.75,758.23 -124.53,1145.6z"/>
    <path class="fil8" d="M21001.2 13335.71l-76.83 97.38c-44.43,149.4 -72.23,202.52 -209.45,279.02 -339.17,712.64 -927.79,563.25 -1591.46,595.98l-55.29 38c261.63,-7.36 361.67,-67.74 433.46,171.06 -135.27,191.55 -64.98,49.13 -266,130.23 -141.37,57.06 -73.45,72.73 -234.87,164.02l-215.71 -157.37c-183.24,153.38 261.52,257.41 252.1,481.37 -407.75,8.15 -873.73,-507.41 -1079.35,-826.2 -165.07,-190.5 -300.46,-355.91 -569.39,-340.56 -300.74,232.21 -249.44,732.14 -372.31,1012.49l605.46 493.28c659.08,431.25 1126.32,687.28 1810.83,1050.77 201.63,-167.95 578.03,-214.26 748.92,-404.54 132.62,-147.63 405.38,-581.08 550.68,-670.88l105.13 -380.44c2.33,-356.8 87.91,-718.79 174,-1048.44 71.34,-273.26 146.24,-523.37 146.96,-739.24l-156.88 54.07z"/>
    <path class="fil2" d="M22865.32 18751.41c-178.81,45.87 -426.81,302.17 -516.38,449.53 49.12,167 186.17,302.9 357.89,338.45 134.89,197.11 332.95,274.16 407.72,478.15l-0.02 0c-151.34,857.01 -452.28,1644.49 -716.91,2470.58 -220.3,687.71 -770.69,1892.2 -439.38,2558.82 113.62,36.28 763.57,43.41 818.96,-108.15l-104.75 -1461.39c71.84,-414.24 -57.84,-1291.41 311.35,-1991.36 131.78,-249.89 326.77,-461.54 533.44,-646.95 527.09,-472.78 351.05,34.51 387.88,-736.12l-593.82 -1668.3 -0.02 0.02c-84.68,-31.87 -18.69,10.23 -53.26,-87.67l-392.7 404.39z"/>
    <path class="fil9" d="M14713.04 14645.55c-74.89,1213.19 485.14,2484.48 735.75,3667.31l103.3 459.16c104.75,174.49 1185.49,3832.65 1242.93,4170.11l157.21 -29.58 279.85 -196.2c-217.09,-447.48 -437,-1291.79 -594.15,-1794.44 -197.15,-630.71 -397.12,-1265.8 -584.96,-1898.68l-5.04 -70.63c-260.63,-599.36 -505.03,-1696.38 -664.68,-2358.45 -97.66,-405.21 -224.45,-858 -285,-1265.81 -121.24,-817.46 27.48,-781.25 391.19,-1416.98l20.5 -98.16c-514.11,126.6 -723.43,247.47 -796.9,832.35z"/>
    <path class="fil10" d="M12460.56 19463c57.72,297.58 449.08,1486.78 417.94,1666.25 -162.52,-6.64 -805.87,-687.93 -982.69,-679.35 -19.99,211.77 805.05,975.32 1184.11,1636.56 400.11,697.91 642.95,1388.84 780.5,2181.36l1171.64 329.98 -1256.78 -2596.87c-254.21,-590.16 -858.83,-2207.12 -1270.24,-2585.12l-44.48 47.19z"/>
    <path class="fil11" d="M18229.73 18155.48l-117.55 123.59 -805.09 -486.75c335.46,531.06 850.79,1112.86 1228.14,1652.96 226.5,324.16 975.6,1474.81 1205.09,1659.54 -45.2,-452.68 -70.57,-886.47 -72.9,-1342.03 -1.71,-337.29 82.15,-1097.41 49.75,-1347.45l-1024.18 -914.67 -463.26 654.81z"/>
    <path class="fil12" d="M20042.33 18617.58l73.62 -94.12c566.02,580.31 387.48,2919.27 418.78,3755.72 54.34,171.11 790.58,1331.22 899.37,1382.74l19.06 -2845.2c-169.73,-240.47 -384.49,-946.07 -531.78,-1271.24 -120.98,-267.11 -523.03,-987.5 -579.48,-1182.16 -195.93,18.78 -358.51,22.16 -299.57,254.26z"/>
    <path class="fil6" d="M17654.85 31277.1c-146.35,130.12 -371.91,197.09 -559.2,257.52 -984.35,361.62 -1975.02,1023.3 -3096.58,946.69 235.98,129.01 316.35,73.28 576.21,73.06l-279.02 66.59c12.52,151.5 45.09,-258.31 44.98,502.14l2015.56 0c225.18,-436.06 907.52,-152.72 1111.15,-565.57 -72.18,-380.45 -545.19,-268.38 -740.62,-520.54 214.16,-366.87 1113.81,-247.72 1387.96,-708.65l-103.81 -136.6 -356.63 85.36z"/>
    <path class="fil13" d="M18692.99 17500.67l1024.18 914.67c32.4,250.04 -51.46,1010.16 -49.75,1347.45 2.33,455.56 27.7,889.35 72.9,1342.03 105.58,304.78 340.29,490.19 465.98,775.24 149.67,-208.33 12.41,-283.34 130.56,-547.68 -69.02,-338.73 -35.23,-1043.73 -77.5,-1461.07 -44.26,-437.45 -125.3,-826.26 -217.03,-1253.73 -58.94,-232.1 103.64,-235.48 299.57,-254.26l-6.98 -38.33c-189.83,-36.62 -267.27,5.81 -324.55,-167.96 -424.15,-237.3 -1076.03,-1348.84 -281.68,-1534.85l175.82 70.29c182.03,40.16 61.54,31.8 94.06,-35.73l-92.23 -26.31c-152.83,-108.68 -290.1,-86.8 -473.95,-105.25 -204.57,184.41 -657.92,717.74 -739.4,975.49z"/>
    <path class="fil14" d="M9276.34 21833.86c-92.12,572.45 190.56,2178.43 269.66,2834.74 92.29,291.31 143.36,802.1 229.44,1146.76 89.96,360.34 177.76,723.39 272.43,1082.4 196.1,743.61 435.84,1337.16 678.3,2048.58l1012.66 2015.07 171.5 192.94 399.55 428.41c238.53,264.29 835.35,520.1 990.78,696.75l189.28 45.42 509.13 156.38c1121.56,76.61 2112.23,-585.07 3096.58,-946.69 -198.04,-97.93 -1470.55,469.52 -1769.95,568.74 -738.85,244.84 -1172.64,369.36 -1889.21,-52.24 -1041.96,-389.53 -1314.5,-851.74 -1851.27,-1765.52 -519.98,-885.08 -795.01,-1510.76 -1131.7,-2479.88 -215.81,-621.13 -191.66,-917.38 -317.74,-1510.15 -103.64,-487.02 -287.05,-941.36 -385.48,-1438.91 -199.87,-1010.06 -356.52,-2115.5 -447.31,-3140.9l-26.65 118.1z"/>
    <path class="fil7" d="M13301.55 24580.08c-202.74,-1.61 -239.14,-64.65 -380.12,69.35 546.52,455.28 2558.32,403.88 2694.87,662.07 -301.07,76.83 -1627.98,-103.14 -1896.25,25.31 -164.52,454.84 792.96,399.89 1026.17,380.67 716.52,-59.05 577.71,-10.58 1195.41,205.07l66.75 -136.32 394.68 107.24c59.93,-314.2 -277.36,-242.3 -83.09,-503.64 -171.73,-232.55 -994.33,-693.81 -1287.91,-792.03l-1171.64 -329.98 -279.46 -68.19c245,471.13 1504.77,471.63 2000.27,785.65 -340.28,-47.69 -2104.64,-301.17 -2279.68,-405.2z"/>
    <path class="fil15" d="M20735.14 17377.2c3.56,17.47 9.73,40.78 19.33,53.44 70.12,92.33 108.38,117.47 285.93,377.17l44.07 -51.99 305.77 -523.88c136.14,-911.18 -109.22,-1908.35 -451.21,-2744.49l-115.64 479.18c-362.06,570.69 -598.14,1017.16 -1391.01,1558.56 616.02,61.79 884.92,288.32 1302.76,852.01z"/>
    <path class="fil5" d="M26139.33 23048.88c67.52,566.01 -152.84,1254.45 -147.35,1803.68l460.21 341.28c214.82,119.15 401.44,219.47 509.4,446.2l606.4 -123.53c302.51,-67.47 680.63,11.41 805.1,-27.03 58.99,-304.56 -1644.37,-715.41 -1789.28,-836.28 5.43,-277.14 413.51,-275.75 504.47,-487.69 -104.97,-267.67 -618.25,-127.8 -743.55,-754.08 -46.48,-232.38 -39.28,-1166.99 -144.03,-1273.51l-61.37 910.96z"/>
    <path class="fil16" d="M20406.71 18169.16l-71.79 155.83 6.98 38.33c56.45,194.66 458.5,915.05 579.48,1182.16 147.29,325.17 362.05,1030.77 531.78,1271.24l23.27 -3276.33c-163.91,29.36 -171.34,150.06 -350.48,199.08l-79.94 61.71c-183.85,-253.48 -250.15,-338.07 -310.87,-423.98 -23.04,177.48 -215.53,652.59 -328.43,791.96z"/>
    <path class="fil14" d="M24865.32 33123.1l1016.09 0 -74.56 -2048.41c-1137.46,25.59 -404.93,-5.15 -954.33,332.86 -165.02,101.54 -253.48,144.86 -287.1,345.38 187.23,184.08 345.16,152.61 360.56,525.75 11.35,273.75 -85.42,491.56 -60.66,844.42z"/>
    <path class="fil14" d="M25516.64 24633.75l339.18 212.27 136.16 6.54c-5.49,-549.23 214.87,-1237.67 147.35,-1803.68 -23.1,-612 93.44,-927.47 -64.43,-1567.54 -48.63,-197.26 -310.2,-991.61 -555.66,-947.02 -29.52,72.18 261.19,3116.19 -2.6,4099.43z"/>
    <path class="fil17" d="M12812.25 24912.05c-61.98,83.65 -35.28,381.83 227.67,428.03 23.27,-5.21 46.48,-10.47 69.74,-15.67 86.69,22.54 173.39,45.14 260.08,67.69 -25.76,44.81 -17.56,113.94 -5.54,181.02 34.07,189.95 83.7,263.02 267.99,330.26 387.65,141.54 585.63,245.62 1083.4,113.51 21.33,412.57 -16.4,299.95 273.81,593.54 83.37,-13.79 166.74,-27.64 250.11,-41.43 -147.68,-243.13 -228.12,-91.51 -368.37,-347.6 -7.15,-64.59 -14.24,-129.12 -21.39,-193.71 219.59,-57.34 643.41,49.58 881.43,73.95 362.5,37 405.21,156.65 719.24,272.2 16.73,-13.29 33.46,-26.58 50.19,-39.88 -186.35,-137.15 -372.64,-274.25 -558.98,-411.41 -617.7,-215.65 -478.89,-264.12 -1195.41,-205.07 -233.21,19.22 -1190.69,74.17 -1026.17,-380.67 268.27,-128.45 1595.18,51.52 1896.25,-25.31 -136.55,-258.19 -2148.35,-206.79 -2694.87,-662.07 -36.39,87.52 -72.78,175.1 -109.18,262.62z"/>
    <path class="fil18" d="M22497.84 8046.47c62.42,148.79 172.66,248.94 129.84,407.31l-71.57 520.7c-198.14,791.81 -200.64,1975.57 -551.23,2675.09 -144.63,288.66 -861.09,1459.8 -1320.53,1860.41l-51.74 55.56 74.89 79.88 216.87 -212.33 76.83 -97.38c1349.68,-1540.34 1402.85,-2414.79 1730.4,-4391.69 -209.17,-466.7 485.75,-2242.79 -241.19,-3417.31 -526.02,281.79 336.63,1407.06 42.1,1995.45 -196.54,50.52 -176.32,-19.33 -338.12,107.25 -24.6,204.35 160.81,236.14 303.45,417.06z"/>
    <path class="fil19" d="M16011.26 13116.51c-12.19,106.25 -24.43,212.44 -36.62,318.68 169.28,-232.43 290.65,-1277.27 303.78,-1596.89 118.38,382.71 -20.61,1473.53 -288.38,1794.6 56.06,151.17 112.17,302.34 168.23,453.51 89.02,131.45 177.98,262.9 267,394.35 75.95,65.42 151.95,130.78 227.89,196.2 2.22,-606.01 4.43,-1211.96 6.65,-1817.97 -5.37,-231 29.3,-341.51 83.81,-302.12 261.4,201.63 403.32,526.57 724.33,549.17 -93.61,-238.58 -748.15,-760.67 -969.17,-1042.29 -249.66,-318.18 -228.23,-1131.03 -255.15,-1542.11 -6.26,-95.22 65.26,-157.99 56.73,-193.99 -34.62,64.81 -121.93,62.76 -152.67,56.89 -101.26,-19.5 -253.15,-99.1 -350.75,-304.61 86.52,358.73 290.65,362.66 367.7,417.83 16.68,89.41 24.65,1158.62 14.02,1307.41 -32.58,455.51 -118.93,872.9 -167.4,1311.34z"/>
    <path class="fil10" d="M26961.59 25640.04l-621.74 223.57 -391.47 231.27 -709.37 555.88 -82.87 -324.94 27.58 248.77c-32.79,269.55 -366.82,418.73 -600.91,525.97l31.13 276.91c305.06,-112.83 678.63,-356.62 999.7,-502.59 192.99,-87.74 1084.94,-325.16 1103.11,-339.01l-461.6 -150.06 10.31 -61.99c232.26,-220.46 999.03,-424.48 1323.47,-469.13 583.41,-80.26 958.15,50.58 1491.98,231 -286.88,-460.99 -1084.45,-338.74 -1512.92,-569.18l-606.4 123.53z"/>
    <path class="fil20" d="M13936.09 32087.46l-499.6 -36.34c716.57,421.6 1150.36,297.08 1889.21,52.24 299.4,-99.22 1571.91,-666.67 1769.95,-568.74 187.29,-60.43 412.85,-127.4 559.2,-257.52 29.08,-30.75 2371.08,-958.76 2627.34,-1056.09 588.34,-223.46 2195.87,-811.52 2624.23,-1159.17 -765.65,220.96 -1518.02,568.84 -2257.64,867.47l-5504.16 2137.98c-540.43,196.82 -656.09,258.86 -1208.53,20.17z"/>
    <path class="fil21" d="M23129.6 25026.33l315.14 101.59c452.74,39.55 776.35,939.76 1023.02,1184.22 215.09,5.59 441.76,-154.22 643.56,-238.97 -175.93,-710.87 -619.97,-1047.39 -1317.27,-1190.42 -243.4,-30.91 -508.79,-73.01 -664.45,143.58z"/>
    <path class="fil18" d="M19207.22 10826.03c485.02,-239.14 387.74,508.68 1216.73,192.1 189.66,-208.6 68.08,-337.18 17.1,-594.59 -42.04,-212.32 -19.49,-430.53 -23.37,-645.67 -7.98,-442.94 -55.07,-830.25 166.96,-1227.7 -201.31,-76.51 -234.87,156.88 -269.99,348.36 -18.78,102.43 -27.36,196.82 -31.14,290.55 -21.7,544.74 -85.58,304.94 -254.92,720.35 -170.27,417.77 29.08,744.1 -150.78,874 -275.25,88.46 -567.45,-138.48 -551.45,-436.62 -191.17,214.95 -373.45,276.1 -214.7,539.76l95.56 -60.54z"/>
    <path class="fil22" d="M13107.95 26196.31c233.04,-153.61 400.49,-68.03 544.3,-237.7l-126.02 -93.73 -95.17 -131.56c-184.63,-322.28 -93.4,-162.63 -321.4,-408.91l-69.74 15.67c-284.94,106.64 -1116.96,365.49 -1028.5,764.44 235.65,76.05 682.46,-12.35 1096.53,91.79z"/>
    <path class="fil23" d="M17957.8 14309.2c205.62,318.79 671.6,834.35 1079.35,826.2 9.42,-223.96 -435.34,-327.99 -252.1,-481.37l215.71 157.37c161.42,-91.29 71.12,-252.21 212.54,-309.26 200.97,-81.1 860.11,-138.99 1049.39,-308.16 -1211.63,183.08 -1569.98,46.87 -2168.23,-261.73 -120.65,192.77 35.78,162.02 -136.66,376.95z"/>
    <path class="fil24" d="M13107.95 26196.31l810.13 146.4c-112.34,170.28 -382.49,169.84 -350.42,480.32 197.98,81.6 501.04,26.32 722.73,17.73l595.32 -225.23c-201.86,-233.15 -157.77,-211.16 -295.7,-446.48 -352.53,-78.88 -556.04,-88.85 -978.53,-213.37 -143.81,169.67 -270.49,87.02 -503.53,240.63z"/>
    <path class="fil12" d="M19657.62 17057.35c69.96,433.52 25.92,354.86 191,773.58l58.05 211.11 169.06 53.62 -65.36 61.37c57.28,173.77 134.72,131.34 324.55,167.96l71.79 -155.83c-54.34,-157.31 52.02,-508.62 -47.91,-826.97 -127.74,-406.87 -250.16,-356.19 -454.29,-649.72l-175.82 -70.29c38.17,210.88 51.41,257.03 -71.07,435.17z"/>
    <path class="fil25" d="M20042.33 18617.58c91.73,427.47 172.77,816.28 217.03,1253.73 42.27,417.34 8.48,1122.34 77.5,1461.07 29.53,240.58 12.58,182.03 91.68,390.2 47.25,124.47 88.07,279.52 -50.63,337.46l156.82 219.14c-31.3,-836.45 147.24,-3175.41 -418.78,-3755.72l-73.62 94.12z"/>
    <path class="fil26" d="M15941.63 25922.55l558.98 411.41 -50.19 39.88 0 47.75 982.74 -94c-129.95,-225.79 -864.2,-844.26 -1113.19,-937.76 -194.27,261.34 143.02,189.44 83.09,503.64l-394.68 -107.24 -66.75 136.32z"/>
    <path class="fil24" d="M13309.03 33123.1l1032.21 0c0.11,-760.45 -32.46,-350.64 -44.98,-502.14l279.02 -66.59c-259.86,0.22 -340.23,55.95 -576.21,-73.06l-509.13 -156.38 -82.09 53.73 -98.82 744.44z"/>
    <path class="fil27" d="M14524.54 14840.32c-197.93,351.92 -96.5,585.01 21.38,957.15 85.19,269.05 184.85,576.76 281.34,840.61 202.86,554.54 385.44,1134.24 621.53,1674.78 -250.61,-1182.83 -810.64,-2454.12 -735.75,-3667.31l-188.5 194.77z"/>
    <path class="fil28" d="M22812.74 8435.01c308.27,-548.18 521.94,-2599.14 127.1,-3115.47 -9.66,-239.71 -137.16,-551.9 -343.57,-680.58 -57.87,-178.36 -85.74,-174.65 -251.98,-259.03 -144.19,-219.68 -273.33,13.75 -362.45,-389.19 -184.63,215.25 -165.58,58.56 -329.36,190.01 -228.77,22.87 -298.1,31.97 -792.89,388.81 -10.14,195.15 -118.47,68.16 -356.11,245.1 -168.71,125.67 -282.97,283.89 -484.72,276.3l654.66 22.01 187.24 -20.33 118.15 40.43 90.42 -58.61c538.76,-33.44 373.78,-10.06 803.88,-240.29 306.25,85.68 504.19,408.75 617.3,692.54 726.93,1174.52 32.02,2950.6 241.18,3417.3l81.15 -509zm-2301.13 -3986.05c212.68,180.53 1090.11,-278.78 1199.56,-551.41l-170.04 -186.75c-64.37,24.17 700,33.9 -253.56,-412.04 -200.99,-200.86 -555.28,-310.74 -835.36,-306.26 -429.48,-168 -656.68,11.03 -967.06,192.1 -305.77,178.45 -88.56,244.49 -511.06,740.56l259.41 180.1 149.03 8.48 352.03 113.34 598.81 110.26 178.24 111.62z"/>
    <path class="fil29" d="M21320.49 31282.75c49.69,410.02 279.46,407.37 120.76,888.85 -102.2,310.21 -111.34,626.56 -115.66,951.5l260.46 0c38.78,-387.37 78.66,-759.12 124.53,-1145.6 65.53,-552.17 -382.22,-514.44 -206.12,-943.53l-167.07 10.2 -16.9 238.58z"/>
    <path class="fil17" d="M13301.55 24580.08c175.04,104.03 1939.4,357.51 2279.68,405.2 -495.5,-314.02 -1755.27,-314.52 -2000.27,-785.65 -314.92,-35.4 -451.8,60.1 -279.41,380.45z"/>
    <path class="fil7" d="M21458.09 8142.96l-171.5 128.3 -224.34 63.7 -236.76 143.75c-86.97,125.02 -88.91,94.78 -10.25,204.24 205.18,-34.07 145.74,-214.6 507.69,-280.85 131.45,-24.04 593.99,2.82 555.88,192.55 110.84,148.45 245.28,187.62 253.48,379.83l82.15 47.86 134.55 -43.31 59.44 -656.7 -184.74 -221.52 -73.89 -0.44 -691.71 42.59z"/>
    <path class="fil29" d="M30532.18 30017.33c559.09,-177.37 588.73,-1369.73 510.95,-1848.5 -66.19,-407.75 -392.3,-1404.29 -632.04,-1720.26 376.4,1150.76 945.3,2484.31 121.09,3568.76z"/>
    <path class="fil30" d="M24507.7 26661.67c95.16,-124.14 56.66,-46.7 240.68,-59.55 130.29,-9.03 292.87,-22.87 435.34,-27.53l-27.58 -248.77 -1 -93.45 -43.82 -159.2c-201.8,84.75 -428.47,244.56 -643.56,238.97 -246.67,-244.46 -570.28,-1144.67 -1023.02,-1184.22 791.08,466.64 662.96,999.48 1062.96,1533.75z"/>
    <path class="fil31" d="M14871.14 26221.4l967.9 138.98 35.34 103.15 576.04 -41.94 0 -47.75c-314.03,-115.55 -356.74,-235.2 -719.24,-272.2 -238.02,-24.37 -661.84,-131.29 -881.43,-73.95l21.39 193.71z"/>
    <path class="fil32" d="M19904.51 16692.47c204.13,293.53 326.55,242.85 454.29,649.72 99.93,318.35 -6.43,669.66 47.91,826.97 112.9,-139.37 305.39,-614.48 328.43,-791.96 -183.68,-291.87 -453.84,-606.68 -778.67,-726.55 -32.52,67.52 -145.74,-42.21 -51.96,41.82z"/>
    <path class="fil33" d="M22777.19 24938.81c72.95,172.61 102.75,-3.49 289.32,53.51l-218.14 -1542.5 -175.93 27.58 104.75 1461.41z"/>
    <path class="fil33" d="M28909.19 22784.48c209.61,589.89 429.58,1022.91 690.04,1579.84 260.58,557.26 246.12,1314.55 616.93,1718.54 -3.49,-219.3 -436.07,-1585.65 -562.42,-1813.6 -253.92,-458.22 -705.28,-1528.93 -728.65,-1566.49l-15.9 81.71z"/>
    <path class="fil34" d="M20423.94 11018.13c361.22,68.19 157.71,-887.46 131.73,-1127.04 -24.43,-225.46 -49.14,-499.16 -42.82,-724.22 5.2,-183.91 103.81,-479.16 71.79,-616.7 -222.02,397.45 -174.94,784.76 -166.96,1227.69 3.88,215.15 -18.67,433.35 23.38,645.67 50.96,257.42 172.55,385.99 -17.12,594.6z"/>
    <path class="fil35" d="M20823.39 14966.62l113.06 -232.27 32.57 -68.63c279.46,564.18 510.84,1966.32 421.21,2566.23l82.37 0c-27.53,-1173.85 -72.12,-1523.16 -342.77,-2651.6l-214.43 -121.86 -92.01 508.13z"/>
    <path class="fil36" d="M12999.37 33123.1l172.17 0 129.12 -843.59c-155.43,-176.65 -752.25,-432.46 -990.78,-696.75 104.98,147.96 233.49,253.37 355.08,389.37 149.73,167.4 274.09,190.72 424.82,329.31l-90.41 821.66z"/>
    <path class="fil7" d="M26339.86 25863.6l621.74 -223.55c-107.97,-226.74 -294.59,-327.07 -509.41,-446.22l-460.2 -341.28 -136.17 -6.52c-380.48,-238.12 -317.44,-247.21 -742.18,-257.66 -339.34,-2.87 -1070.7,109.58 -1319.58,294.39 697.28,143.02 1141.34,479.53 1317.26,1190.41l43.81 159.19 1.02 93.46 82.85 324.95 709.38 -555.89 391.48 -231.28z"/>
    <path class="fil37" d="M17307.09 17792.32l805.09 486.75 117.55 -123.59c-195.93,-72.67 -574.88,-293.31 -697.02,-456l-300.24 -220.8 -366.04 -256.36 440.66 570z"/>
    <path class="fil38" d="M24507.7 26661.67l75.11 438.89c234.09,-107.24 568.12,-256.42 600.91,-525.97 -142.47,4.66 -305.05,18.5 -435.34,27.53 -184.02,12.85 -145.52,-64.59 -240.68,59.55z"/>
    <path class="fil39" d="M25113.64 24588.37c45.64,6.83 91.31,13.68 136.95,20.51 41.04,-1.58 82.04,-3.19 123.08,-4.77 18.95,-537.98 -66.07,-1611.69 -125.42,-2082.36 -41.92,-23.43 -83.82,-46.86 -125.75,-70.3 62.18,512.6 99.8,1589.08 -8.86,2136.92z"/>
    <path class="fil28" d="M20410.54 3049.05c280.08,-4.49 701.33,115.81 902.32,316.67 134.2,62.76 172.72,77.41 241,212.68 -239.06,263.82 -535.97,388.81 -830.74,122.23l-563.31 -126.51 -27.35 51.3 119.76 57.05 448.86 166.81 198.65 82.29 170.04 186.75c-109.45,272.64 -264.15,269.48 -476.83,88.95l-178.25 -111.62 -515.16 -161.35 -352.03 -113.34 -149.03 -8.49 -71.95 -77.43c422.5,-496.06 22.49,-311.58 328.26,-490.02 310.39,-181.07 326.28,-363.98 755.76,-195.97zm-4786.53 4762.77l13.55 94.11 58.6 78.55c223.15,169.46 348.95,299.08 480.56,554.93 150.6,292.88 129.39,705.4 207.22,844.04 193.88,-209.39 51.35,-1189.47 124.25,-1546.41 117.49,-575.33 404.72,-477.01 457.07,-1292.81l-64.09 -261.12 -83.87 44.27c-120.04,-544.56 -120.22,-868.85 164.51,-1302.87 212.99,-324.62 292.48,-63.17 521.92,-191.18l-62.43 -122.79 204.91 97.27 -65.82 -148.42c250.28,34.08 432.92,280.02 873.69,273.22 329.26,200.79 926.28,106.34 1255.29,266.73 269.14,-37.62 745.08,48.73 964.05,-86.37l-357.07 -31.3c201.75,7.59 364.84,-1.84 533.56,-127.51 237.64,-176.94 111.13,-201.09 121.26,-396.24 494.79,-356.84 301.4,-172.95 530.17,-195.82 338.15,-33.8 295.87,-156.11 480.5,-371.36 -246.12,-608.16 -346.22,-492.57 -732.43,-862.86 -416.67,-151.17 -502.07,-227.96 -978.52,-259.19 -900.61,-13.7 -1379.91,-113.44 -2275.58,168.77 -312.32,98.39 -590.05,222.53 -863.15,403.6 -272.71,180.82 -420.77,510.13 -617.94,583.3 -95,199.26 -358.72,487.35 -507.62,682.69 -198.8,260.79 -319.5,506.02 -389.42,828.07 -140.65,647.79 -59.22,1606.09 6.83,2276.7z"/>
    <path class="fil23" d="M15239.51 26569l634.87 -105.47 -35.34 -103.15 -967.9 -138.98c140.25,256.09 220.69,104.47 368.37,347.6z"/>
    <path class="fil40" d="M21001.2 13335.71l156.88 -54.07c-159.26,471.85 -404.93,1111.7 -409.2,1764.25l74.51 -79.27c112.5,-621.25 315.13,-1655.56 611.38,-2161.03l-433.57 530.12z"/>
    <path class="fil1" d="M15974.64 13435.19l15.4 197.71c267.77,-321.07 406.76,-1411.89 288.38,-1794.6 -13.13,319.62 -134.5,1364.46 -303.78,1596.89z"/>
    <path class="fil26" d="M22214.44 9022.34c164.74,77.33 181.69,31.08 341.67,-47.86l71.57 -520.7 -219.25 -131.45 -59.44 656.7 -134.55 43.31z"/>
    <path class="fil37" d="M21046.01 17801.18c133.78,-50.68 247.73,-114.33 430.42,-260.79l-3.83 -308.44 -82.37 0 -344.22 569.23z"/>
    <path class="fil41" d="M13862.52 26059.87c264.12,57.06 457.11,48.69 727.49,109.18 137.93,235.32 93.84,213.33 295.7,446.48l103.69 -5.1c-290.21,-293.59 -252.48,-180.97 -273.81,-593.54 -535.05,122.14 -1094.47,-93.23 -1262.54,-239.25 156.77,237.86 227.01,242.79 409.47,282.23z"/>
    <path class="fil42" d="M22408.42 8322.32l219.25 131.46c230.58,-852.83 -1899.87,-663.46 -1802.19,24.93 415.15,-162.5 1144.16,-348.2 1582.94,-156.39z"/>
    <polygon class="fil20" points="13300.66,32279.51 13171.54,33123.1 13309.03,33123.1 13407.85,32378.66 13489.94,32324.93 "/>
    <path class="fil43" d="M20206.3 21880.06l171.61 179.98c138.7,-57.94 97.88,-212.99 50.63,-337.46 -79.1,-208.17 -62.15,-149.62 -91.68,-390.2 -118.15,264.34 19.11,339.35 -130.56,547.68z"/>
    <path class="fil44" d="M19487.39 8447.13c382.39,-247.52 -46.46,-543.06 -368.81,-630.42 -423.83,-134.53 -1560.47,-498.33 -2000.78,56.42 720.28,-63.14 1755.8,186.82 2369.59,574z"/>
    <path class="fil45" d="M30886.7 29667.26c-491.71,657.93 -1622.01,947.65 -2549.06,1067.54 -33.75,26.67 -67.52,53.36 -101.27,80.03 2073.96,-159.95 2464.85,-782.99 2650.33,-1147.57z"/>
    <path class="fil46" d="M20019.51 14111.89c448.41,-51.68 410.91,-321.84 695.41,-399.78l-7.42 -66.69 -74.89 -79.88 51.74 -55.56c-284.4,234.37 -317.74,407.03 -705.33,587.62l40.49 14.29z"/>
    <path class="fil23" d="M20117.45 11191.68c-297.36,-31.85 -313.53,307.22 -189.12,492.57l189.12 -492.57z"/>
    <polygon class="fil5" points="16047.93,18952.6 16052.97,19023.23 17191.09,19349.17 "/>
    <path class="fil47" d="M13761.76 25941.27c-277.85,-134.38 -425.26,-439.38 -392.02,-549.17 -86.69,-22.55 -173.39,-45.15 -260.08,-67.69 102.87,182.24 394.74,609.83 652.1,616.86z"/>
    <path class="fil25" d="M20010.38 18157.03c21.77,-20.45 43.58,-40.93 65.35,-61.38 -132.65,-76.54 -199.48,-188.51 -227.12,-264.72 -280.25,-710.88 9.05,-742.77 -119.91,-1208.75 -832.32,198.39 -160.75,1305.21 281.68,1534.85z"/>
    <polygon class="fil24" points="17469.11,21309.12 17232.47,21112.91 "/>
    <polygon class="fil48" points="21474.87,8951 21579.62,8842.2 "/>
    <polygon class="fil25" points="19944.34,17974.34 19848.62,17830.93 "/>
    <polygon class="fil36" points="17703.65,21494.91 17469.11,21309.12 "/>
    <polygon class="fil6" points="19946.44,23134.24 20149.85,23316.1 "/>
    <polygon class="fil49" points="11910.33,31154.35 11738.83,30961.41 "/>
    <polygon class="fil44" points="17646.21,4807.8 17749.02,4890.06 "/>
    <polygon class="fil29" points="18266.07,21919.34 18074.02,21781.96 "/>
    <polygon class="fil41" points="17503.74,4833.34 17604.28,4939.31 "/>
    <polygon class="fil29" points="18074.02,21781.96 17892.6,21643.81 "/>
    <polygon class="fil36" points="17892.6,21643.81 17703.65,21494.91 "/>
    <polygon class="fil5" points="19946.44,23134.24 19707.03,22948.78 "/>
    <polygon class="fil50" points="23751.57,21357.42 23880.19,21239.21 "/>
    <g>
     <circle class="fil51" cx="17327.17" cy="23667.51" r="1074.85"/>
     <circle class="fil52" cx="17354.01" cy="23647.09" r="998.54"/>
     <path class="fil4" d="M17582.89 24619.27c167.26,-903.59 -266.4,-1318.43 -1174.47,-1293.9 -34.33,100.94 -52.95,209.16 -52.95,321.74 0,551.46 447.05,998.52 998.57,998.52 78.75,0 155.37,-9.12 228.85,-26.36z"/>
    </g>
    <path class="fil5" d="M17769.31 19686c-256.36,251.82 -512.75,503.65 -769.08,755.48 -247.98,243.57 -277.22,359.54 -71.63,573.69 809.96,843.69 2685.48,1680.98 4146.52,3309.76 -1091.36,-1679.24 -2636.09,-2199.4 -3888.88,-3341.7 -195.54,-178.29 -190.32,-280.38 -83.93,-425.2 216.65,-294.92 444.67,-581.36 667,-872.03z"/>
    <g>
     <path class="fil53" d="M22301.33 9077.6c-53.25,79.63 -664.03,172.37 -783.22,169.68 -158.45,37.25 -566.5,-83.47 -426.88,-302.82 43.72,58.55 80.36,39.56 150.35,30.84l-29.73 57.73c159.12,151.94 390.74,72.69 400.04,-134.35 9.57,-212.01 -255.55,-311.07 -393.53,-145.62l-30.14 -10.98c-139.76,14.6 -46.88,9.74 -77.15,-18.27l55.43 -88.82c184.36,-26.92 398.92,-50.87 592.08,-0.44 232.5,60.73 435.89,216.99 542.75,443.05z"/>
     <path class="fil53" d="M21188.22 8742.07l-76.9 49.88c-50.08,26.06 -9.87,-25.36 -45.03,26.04 -33.92,49.58 7.18,64.79 24.95,126.48 -61.66,96.86 386.99,250.89 474.76,280.52 -334.44,-3.4 -486.89,35.84 -805.84,-127.75l15.33 -66.58c8.77,-72.6 94.33,-190.19 142.9,-248.49 79.25,-95.13 119.44,-126.54 248.1,-147.17l-55.42 88.82c30.27,28.01 -62.6,32.85 77.15,18.25z"/>
     <path class="fil54" d="M21241.57 8975.31c-69.98,8.7 -106.6,27.71 -150.33,-30.84 -17.77,-61.69 -58.87,-76.9 -24.95,-126.48 35.16,-51.4 -5.05,0.02 45.03,-26.04l76.9 -49.88 30.13 10.99c126.82,45.74 83.51,151.86 23.22,222.25z"/>
     <path class="fil55" d="M20746.89 8883.44c112.12,-640.79 1319.64,-687.95 1535.48,25.86 -90.23,-43.17 -163.57,-180.17 -251.94,-233.86 -192.95,-117.2 -502.26,-109.04 -724.41,-100.4 -205.03,8.01 -150.51,32.35 -322.63,97.81 -18.55,48.41 -27.67,2.17 -82.81,37.41 -26.35,85.42 -116.53,151.27 -153.69,173.18z"/>
     <ellipse class="fil56" cx="21386.62" cy="8889.72" rx="328.62" ry="324.51"/>
     <path class="fil57" d="M21241.57 8975.31c60.29,-70.39 103.6,-176.51 -23.22,-222.25 137.99,-165.45 403.1,-66.39 393.55,145.62 -9.3,207.03 -240.94,286.28 -400.06,134.34l29.73 -57.71z"/>
     <ellipse class="fil0" cx="21148.05" cy="8872.02" rx="102.05" ry="115.02"/>
     <path class="fil58" d="M22421.83 9092.55c-49.17,-6.67 -68.06,-13.77 -120.52,-14.96 -106.64,-225.6 -380.56,-409.35 -645.57,-443.46 -143.25,-19.74 -375.18,-15.79 -489.25,0.87 -128.66,20.63 -168.85,52.04 -248.1,147.17 -48.57,58.3 -134.13,175.89 -142.9,248.49 -11.95,90.24 14.5,84.62 12.36,86.59 -3,2.69 -52.94,-26.43 -98.31,-49.03 50.67,-322.12 304.44,-511.36 614.49,-523.44 222.13,-8.66 533.47,13.45 726.4,130.65 166.41,101.14 284.07,259.74 391.4,417.12z"/>
     <path class="fil59" d="M20689.55 9068.22c612.06,265 1208.93,157.49 1635.17,-1.11 -25.36,21.33 -58.15,38.39 -92.97,53.02 -34.44,14.47 -70.88,26.58 -104.1,38.1 -523.95,181.75 -1058.2,163.27 -1438.1,-90.01z"/>
     <ellipse class="fil0" cx="21548.07" cy="9015.4" rx="44.15" ry="44.1"/>
    </g>
    <g>
     <path class="fil53" d="M17431.47 8911.6c53.26,79.63 664.04,172.37 783.22,169.68 158.46,37.24 566.51,-83.47 426.88,-302.83 -43.72,58.56 -80.36,39.57 -150.34,30.85l29.73 57.72c-159.12,151.94 -390.75,72.69 -400.05,-134.34 -9.56,-212.02 255.55,-311.07 393.53,-145.63l30.15 -10.97c139.76,14.59 46.88,9.74 77.14,-18.28l-55.43 -88.81c-184.35,-26.93 -398.92,-50.88 -592.07,-0.44 -232.51,60.72 -435.89,216.99 -542.76,443.05z"/>
     <path class="fil53" d="M18544.58 8576.07l76.9 49.87c50.08,26.07 9.87,-25.36 45.03,26.05 33.93,49.57 -7.17,64.79 -24.95,126.47 61.67,96.87 -386.98,250.89 -474.75,280.52 334.44,-3.4 486.89,35.85 805.84,-127.75l-15.33 -66.57c-8.78,-72.61 -94.33,-190.19 -142.9,-248.5 -79.26,-95.13 -119.44,-126.54 -248.11,-147.17l55.42 88.82c-30.27,28.01 62.6,32.86 -77.15,18.26z"/>
     <path class="fil54" d="M18491.24 8809.3c69.98,8.71 106.6,27.71 150.32,-30.84 17.78,-61.68 58.88,-76.9 24.95,-126.47 -35.16,-51.41 5.05,0.02 -45.03,-26.05l-76.9 -49.87 -30.13 10.99c-126.82,45.73 -83.5,151.85 -23.21,222.24z"/>
     <path class="fil55" d="M18985.91 8717.43c-112.12,-640.78 -1319.63,-687.95 -1535.48,25.87 90.24,-43.17 163.58,-180.17 251.94,-233.87 192.95,-117.2 502.26,-109.04 724.41,-100.39 205.04,8 150.51,32.34 322.63,97.8 18.55,48.41 27.67,2.18 82.82,37.41 26.34,85.43 116.52,151.27 153.68,173.18z"/>
     <ellipse class="fil56" cx="18346.19" cy="8723.72" rx="328.62" ry="324.51"/>
     <path class="fil57" d="M18491.24 8809.3c-60.29,-70.39 -103.61,-176.51 23.21,-222.24 -137.99,-165.45 -403.09,-66.39 -393.54,145.62 9.3,207.03 240.93,286.28 400.05,134.33l-29.72 -57.71z"/>
     <ellipse class="fil0" cx="18584.75" cy="8706.01" rx="102.05" ry="115.02"/>
     <path class="fil58" d="M17310.98 8926.55c49.16,-6.67 68.06,-13.78 120.51,-14.97 106.64,-225.6 380.57,-409.35 645.58,-443.46 143.24,-19.74 375.17,-15.78 489.24,0.87 128.67,20.63 168.85,52.04 248.11,147.17 48.57,58.31 134.12,175.89 142.9,248.5 11.94,90.24 -14.51,84.62 -12.36,86.58 2.99,2.7 52.93,-26.43 98.3,-49.02 -50.67,-322.13 -304.44,-511.36 -614.48,-523.45 -222.13,-8.66 -533.47,13.46 -726.41,130.66 -166.41,101.14 -284.06,259.73 -391.39,417.12z"/>
     <path class="fil59" d="M19043.26 8902.21c-612.07,265 -1208.93,157.49 -1635.18,-1.1 25.37,21.32 58.15,38.39 92.98,53.01 34.44,14.48 70.87,26.58 104.09,38.11 523.95,181.75 1058.21,163.27 1438.11,-90.02z"/>
     <ellipse class="fil0" cx="18184.73" cy="8849.39" rx="44.15" ry="44.1"/>
    </g>
    <path class="fil5" d="M23308.23 18352.61c-250.91,227.08 -496.15,460.61 -752.71,681.23 -118,101.47 -187.85,107.24 -35.68,269.58 132.99,141.85 265.98,283.72 398.97,425.58 269.6,287.58 240.38,295.32 162.81,558.3 -244.07,827.16 -455.01,1689.09 -817.44,2586.77 186.31,-836.67 457.93,-1649.82 637.08,-2575.42 58.87,-304.11 6.72,-307.28 -125.43,-453.31 -143.95,-159.07 -319.18,-360.56 -470.01,-512.94 -150.84,-152.41 -115.06,-200.46 47.91,-330.18 286.53,-228.05 660.68,-430.99 954.5,-649.61z"/>
    <path class="fil2" d="M14524.56 14840.31c-91.86,64.27 -466.2,313.49 -523.27,445.63 -126.9,293.86 -1347.67,464.23 -2138.36,757.84 -548.14,203.55 -1117.45,310.46 -1360.63,422.49 -507.01,213.78 -951.29,1334.65 -1208.58,2367.98 -224.73,902.68 -193.39,1894.9 71.99,3509.78 416.63,2535.46 589.26,5248.82 1737,7351.52 -1208.52,-1583.32 -1458.14,-4362.93 -1939.26,-6851.82 -328.28,-1698.29 -287.92,-3245.81 -108.29,-3970.69 271.94,-1097.24 653.32,-2346.77 1305.55,-2567.83 779.43,-297.67 3471.1,-1102.35 4163.85,-1464.9z"/>
    <path class="fil60" d="M25296.22 26605.92c132.04,-1473.4 -324.63,-2062.8 -1502.15,-1723.16 697.27,143.03 1141.33,479.54 1317.23,1190.42l43.81 159.19 1.03 93.46 82.87 324.93 57.21 -44.84z"/>
    <path class="fil61" d="M15688.56 8951.56c63.11,190.13 90.83,378.32 153.94,568.44 38.48,115.95 112.37,233.88 150.87,349.85 92.72,258.62 237.55,-491.6 36.65,-712.46 -240.31,-291.72 -309.13,-261.35 -144.58,-452.36 102.29,-118.76 36.9,-242.44 11.17,-289.66 -169.75,-311.45 -473.67,-202.88 -208.05,536.19z"/>
    <path class="fil21" d="M17532.71 17699.48c122.13,162.68 501.08,383.33 697.03,456l463.25 -654.8c81.48,-257.76 534.83,-791.08 739.39,-975.49 -684.5,-363.52 -1151.75,-619.54 -1810.83,-1050.78 -846.18,-689.44 -1659.45,-1145.87 -1610.29,-2357.91l-145.26 174.07 -163.29 282.62c-50.3,170.5 -46.97,245.56 -173.38,369.37 -112.65,980.16 139.35,1715.59 687.27,2438.16l649.83 841.6 366.04 256.36 300.24 220.8z"/>
    <path class="fil62" d="M22785.47 22736.46c468.93,-1411.19 1895.15,-1963.03 2356.15,-637.72 -642.24,-987.37 -1616.75,-590.51 -2356.15,637.72z"/>
    <path class="fil43" d="M23517.25 20839.1c-206.67,185.4 -401.67,397.06 -533.45,646.95 -369.2,699.95 -375.67,1357.55 -311.35,1991.35l175.92 -27.58c41.65,-866.33 103.21,-1883.64 890.78,-2432.63 1007.43,-702.05 1241.48,792.13 1383.35,1434.26l125.75 70.3c193.68,-431.62 -255.65,-1703.92 -825.7,-1881.35 -295.03,-127.5 -224.78,-246.78 -294.97,-552.05 -291.13,-1266.57 -1832.88,-5365.58 -3128.29,-5993.99l-83.9 364.13 214.44 121.88c597.26,441.81 1285.77,1846.71 1764.95,2926.02 238.71,537.63 431.21,1024.47 600.77,1536.63 291.28,879.8 554.49,1297.49 21.7,1796.08z"/>
    <path class="fil63" d="M20916.23 14458.97c-145.95,852.23 -752.45,1461.49 -1483.84,2066.24 1209.99,-714.75 1667.18,-1395.67 1483.84,-2066.24z"/>
    <path class="fil5" d="M16071.95 16584.17c131.91,1087.44 -218.16,1921.01 227.88,2167.34 876.78,484.19 1732.18,463.93 1729.64,1010.4 -534.25,-511.32 -1473.4,-621.47 -1848.84,-933.29 -532.85,-442.56 -126.34,-1322.99 -108.68,-2244.45z"/>
    <path class="fil5" d="M22388.89 15700.6c4288.32,831.69 4192.35,1386.28 5813.19,4818.29 -1147.7,-3190.53 -1297.96,-4204.81 -5813.19,-4818.29z"/>
    <path class="fil64" d="M14229.66 14974.3c-1643.17,655.31 -2629.27,909.97 -3940.72,1537.94 -1105.72,529.46 -1330.08,2955.53 -1387.45,4435.35 -130.75,-2381 429.61,-4262.45 1400.86,-4647.27 1108.62,-439.25 1911.83,-701.33 3927.31,-1326.02z"/>
    <path class="fil65" d="M16653.16 14676.96l148.62 172.06 48.58 39.33 165.74 92.78c122.87,-280.35 71.57,-780.28 372.31,-1012.49 268.93,-15.35 404.32,150.06 569.39,340.56 172.44,-214.93 16.01,-184.18 136.66,-376.95 82.48,22.98 291.15,177.31 444.98,230.05 309.7,106.13 635.92,140.31 959.53,139.7 372.36,-0.78 706.5,-8.7 966.02,-240.91 93.5,-83.7 474.95,-576.93 547.46,-729.26 -809.81,881.1 -867.58,923.81 -2040.88,802.66 -468.8,-65.75 -511.01,-126.8 -782,-365.32l-139.87 -26.15c-50.74,-195.15 -384.27,-605.12 -581.75,-636.98 -321.01,-22.6 -462.93,-347.54 -724.33,-549.17 -102.48,-82.04 -83.92,218.64 -83.81,302.12l-6.65 1817.97z"/>
    <path class="fil63" d="M16011.26 13116.51c-93.26,1448.77 1800.06,2514.65 3421.12,3408.68 -2490.39,-1106.54 -3646.93,-2029.16 -3421.12,-3408.68z"/>
    <path class="fil7" d="M17636.52 9085.32c431.38,153.39 885.8,171.24 1265.67,-3.39 -511.68,328.6 -837.17,238.2 -1265.67,3.39z"/>
    <path class="fil7" d="M20847.39 9259.97c431.38,153.39 885.8,171.24 1265.67,-3.39 -517.7,295.45 -906.82,238.04 -1265.67,3.39z"/>
    <path class="fil23" d="M19250.23 10855.04c-51.22,43.74 336.48,88.19 290.78,33.34 -69.83,-80.29 -200.61,-100.12 -290.78,-33.34z"/>
    <path class="fil2" d="M22340.36 24987.3c1299.88,539.69 2225.85,1819.77 1991.84,3295.49 172.46,-80.56 391.42,-342.77 389.57,-533.1 -65.26,-1037.93 -272.45,-2052.37 -1234.08,-2649.4 -347.84,-215.95 -874.39,-227.6 -1147.33,-112.99z"/>
    <g>
     <path class="fil66" d="M18887.52 11540.24c7.81,6.91 15.61,13.82 23.43,20.74 53.1,-32.84 89.24,10.22 155.1,35.65 62.01,23.94 159.91,45.37 228.81,62.61 307.6,76.95 714.28,124.41 1035.95,126.44 99.43,0.61 304.69,35.67 328.96,61 10.13,-5.65 20.26,-11.3 30.4,-16.95 64.03,-48.41 128.06,-96.81 192.09,-145.22 -49.73,-48.81 -143.84,-10.9 -224.87,-3.68 -236.55,21 -483.52,12.69 -721.12,-7.37 -349.64,-29.52 -672.34,-96.64 -999.33,-205.86 -99.28,-43.89 -183.97,-82.45 -270.56,-104.59 13.05,25 195.79,155.29 221.14,177.23z"/>
     <path class="fil67" d="M18668.91 11432.54c113.96,251.34 301.81,583.8 466.36,649.94 68.38,19.79 185.13,-21.97 265.77,-30.14 107.89,-10.97 201.8,-9.5 314.19,-1.51 229.49,16.27 426.41,68.44 632.56,143.59 144.22,-25.98 238.81,-143.69 337.83,-159.9 19.28,-40.89 11.61,-39.22 61.89,-53.03l327.68 -289.9c87.83,-92.12 -64.35,-98.65 -235.24,-80.89l42.31 73.81 -145.93 100.46c-160.97,262.67 -1687.39,99.83 -1825.38,-223.99l-23.43 -20.74c-21.16,-18.35 -86.19,-86.77 -163.67,-146.71 -30.37,-23.47 -57.34,-34.75 -73,-30.5 -17.62,4.77 -3.98,20.89 18.06,69.51z"/>
     <path class="fil68" d="M18910.95 11560.99c137.99,323.8 1664.4,486.66 1825.37,223.98 -24.28,-25.33 -306.08,1.32 -405.51,0.7 -321.67,-2.02 -728.35,-49.49 -1035.95,-126.44 -68.91,-17.23 -166.78,-38.66 -228.83,-62.6 -65.84,-25.42 -101.98,-68.49 -155.08,-35.64z"/>
     <path class="fil69" d="M19092.55 12062.33l40.52 32.11c179.86,117.91 387.69,203.84 615.67,220.29 159.24,11.48 483.2,-25.38 599.03,-120.31 -206.14,-75.14 -403.03,-127.33 -632.53,-143.58 -112.39,-7.97 -206.3,-9.49 -314.18,1.49 -80.65,8.19 -225.18,38.75 -308.51,10z"/>
     <path class="fil70" d="M18663.19 11362.5c68.55,40.41 146.72,59.57 273.74,105.09 327.01,109.2 623.71,278.54 973.36,308.07 237.58,20.06 510.52,-73.83 747.09,-94.83 81.04,-7.21 137.13,18.55 224.89,3.67 51.24,-12.93 102.36,-26.31 153.7,-38.79 57.62,-13.99 66.04,-29.95 4.53,-38.94 -159.24,-23.28 -285.01,-60.1 -484.16,-60.65 -174.19,-0.48 -463.27,110.51 -634.29,92.64 -206.39,-21.55 -356.56,-127.97 -606.74,-173.87 -433.46,-93.11 -346.2,-34.27 -652.12,-102.39z"/>
     <path class="fil71" d="M20947.15 11809.47c-328.38,224.3 -721.65,429.16 -1171.3,399.26 -467.62,-31.1 -865.78,-360.03 -1074.2,-706.09 115.63,459.17 613.8,880.4 1101.89,881.26 738.56,1.3 1143.61,-574.43 1143.61,-574.43z"/>
     <path class="fil7" d="M19255.4 12347.97c173.79,242.74 631.54,370.32 982.18,88.47 -351.08,119.63 -716.82,73.54 -982.18,-88.47z"/>
    </g>
   </g>
  </g>
  <path class="fil72" d="M23205.98 33927.66l1231.41 -196.9 -667.55 -703.97 -6.33 -7.26c-190.5,-217.62 -343.52,-461.56 -446.35,-728.99 -97.66,-253.98 -151.08,-519.86 -151.08,-791.08 0,-257.03 47,-509.49 142.86,-749.4 98.61,-246.82 248.45,-466.09 443.8,-651.54 200.95,-190.75 440.1,-333.4 701.16,-434.24 292.42,-112.93 606.55,-157.24 920.29,-157.24l73.13 0c686.96,0 1186.96,232.1 1531.53,615.99l0 -587.59 9185.95 0c846.57,0 1802.57,161.95 2347.37,853.58 292.76,371.65 403.91,819.98 403.91,1280.83 0,489.46 -153.32,928.49 -470.75,1288.71 72.02,83.77 135.58,174.15 190.33,270.46 165.04,290.3 250.54,616.65 287.89,944.18l2.98 26.15 0 2350.05 -8166.27 0 0 -5234.71 -420.24 0 0 5234.71 -2379.26 0 0 -5234.71 -433.29 0c22.57,115.23 39.95,233.91 52.42,355.41l45.69 445.39 -1315.11 210.3 550.36 589.14 86.5 83.99c224.74,218.17 411.85,470.76 524.81,759.99 97.56,249.85 151.94,511.75 151.94,779.14 0,270.79 -59.42,533.41 -173.14,780.78 -115.88,252 -283.41,473.3 -493.59,659.71 -217.68,193.08 -472.19,337.62 -747.63,439.73 -306.58,113.64 -633.51,159.52 -960.89,159.52 -612.77,0 -1092.24,-166.84 -1450.38,-460.86l117.04 432.47 -2754.16 0 -438.72 -1571.35 -1035.9 0 -428.27 1571.35 -5775.69 0 0 -949.11c-369.63,634.36 -1062.31,977.5 -2043.36,977.5 -1102.96,0 -1892.36,-412.96 -2205.39,-1248.17 -419.77,797.64 -1187.04,1267.11 -2338.58,1267.11 -1775.51,0 -2907.97,-830.72 -2907.97,-2617.17l0 -3587.62c0,-1811.52 1021.25,-2797.03 2897.54,-2797.03 1028.5,0 1889.97,382.42 2476.93,1211.62l330.98 467.58 -589.55 261.33 6326.35 0c846.58,0 1802.57,161.95 2347.37,853.58 292.75,371.65 403.92,819.98 403.92,1280.83 0,489.46 -153.33,928.49 -470.76,1288.71 72.03,83.75 135.6,174.15 190.35,270.45 98.12,172.58 168.09,357.88 216.57,548.6l1684.6 -6135.38 1703.24 0 1700.99 6285.43zm-14120.94 -386.02l0 -3998.09 -1332.8 590.8 -208.3 -429.64c-111.38,-229.74 -253.79,-349.47 -523.19,-349.47 -65.39,0 -137.4,8.73 -194.32,42.38 -245.04,144.92 -271.71,750.11 -271.71,994.32l0 3616.01c0,215.79 25.54,635.39 224.42,776.76 79.36,56.42 189.98,70.17 285.92,70.63 69.65,0.35 140.06,-9.51 202.75,-40.23 286.07,-140.19 387,-702.26 420.95,-977.31l60.36 -488.78 1335.92 192.62zm16223.89 -2287.97l332.53 355.96c-7.42,-25.41 -15.4,-50.6 -23.98,-75.48 -23.53,-68.31 -96.74,-250.11 -172.59,-279.96 -11.87,-4.68 -26.75,-5.75 -39.35,-5.75 -28.36,0 -62.3,1.23 -96.61,5.23zm-443.73 2928.24c30.79,186.59 111.66,539.57 286.71,627.25 42.23,21.15 91.75,27.23 138.72,27.23 54.04,0 119.52,-3.25 181.07,-14.89l-606.5 -639.59zm9352.66 -1295.86l-1088.79 0 0 1921.95 1088.79 0 0 -1921.95zm2379.24 -1420.53l0 470.78c19.1,-83.19 23.3,-179.79 23.3,-238.06 0,-52.73 -4.17,-151.33 -23.3,-232.72zm-20735.09 -0.03l0 470.84c19.12,-83.19 23.32,-179.8 23.32,-238.09 0,-52.74 -4.17,-151.36 -23.32,-232.75zm4305.92 1761.68l84.04 0 -41.7 -154.04 -42.34 154.04z"/>
  <path class="fil0" d="M34482.41 29790.84l1682.38 0c754.93,0 1648.11,132.4 2136.79,752.78 257.02,326.29 349.95,722.33 349.95,1126.22 0,524.93 -196.07,957.91 -574.31,1288.82 130.65,110.46 240.25,241.49 326.53,393.24 147.93,260.23 223.09,555.84 256.83,849.24l1.4 12.24 0 2080.61 -1829.25 0 0 -2096.72c0,-161.19 -22.95,-391.37 -161.07,-503.69 -86.63,-70.46 -209.23,-87.93 -318.84,-87.93l-20.27 0 0 2688.34 -5307.73 0 0 -5234.7 -949.36 0 0 5234.7 -1850.14 0 0 -5234.7 -981.91 0 0 -1268.45 7239 0zm0 1249.52l-1617.9 0 0 340.77 1190.84 0 0 1249.52 -1190.84 0 0 2432.76 1617.9 0 0 -4023.05zm-16555.53 4427.09l2078.42 -7569.81 1295.37 0 2272.26 8396.35 -2208.91 0 -438.73 -1571.36 -1442.53 0 -428.26 1571.36 -2956.88 0 0 -2096.72c0,-161.19 -22.94,-391.37 -161.05,-503.69 -86.63,-70.46 -209.23,-87.93 -318.84,-87.93l-20.28 0 0 2688.34 -1850.15 0 0 -6503.15 1682.4 0c754.93,0 1648.11,132.4 2136.79,752.78 257.02,326.29 349.95,722.33 349.95,1126.22 0,524.93 -196.07,957.91 -574.31,1288.82 130.65,110.46 240.25,241.49 326.53,393.24 147.95,260.23 223.09,555.84 256.81,849.25l1.41 12.23 0 1254.07zm-8577.29 -1629.43l0 -4047.18 1839.71 0 0 4652.55c0,146.27 14.66,542.18 174.28,627.91 26.91,14.46 57.78,19.66 88.27,20.49 242.98,-3.7 248.06,-672.5 248.06,-809.32l0 -4491.63 1829.25 0 0 4491.63c0,1323.94 -711.06,2039.92 -2089.77,2039.92 -1304.06,0 -2089.8,-601.01 -2089.8,-1897.93l0 -564.9 -20.96 190.79c-155.1,1411.95 -909.45,2290.97 -2433.21,2290.97 -1634.81,0 -2643.41,-723.4 -2643.41,-2361.77l0 -3587.62c0,-1669.82 903.46,-2541.61 2632.97,-2541.61 942.93,0 1722.04,342.51 2258.51,1100.33l154.09 217.66 -1417.06 628.13 -96.97 -200c-155.83,-321.41 -389.98,-496.61 -762.79,-496.61 -116.53,0 -232.07,20.59 -332.52,80 -358.73,212.13 -398.08,857.23 -398.08,1212.1l0 3616.02c0,314.41 44.21,777.77 332.13,982.43 127.62,90.71 285.82,119.61 441.43,120.37 112.66,0.55 222.81,-18.38 323.85,-67.89 393.75,-192.96 517.2,-796.53 563.89,-1174.83l28.09 -227.54 1370.04 197.53zm15645.39 -2539.07l1673.71 1791.66 91.06 88.4c198.09,192.33 365.21,414.88 464.83,670.01 86.39,221.2 134.94,452.24 134.94,689.02 0,235.23 -51.52,462.1 -150.39,677.16 -101.21,220.1 -247.04,412.3 -430.75,575.26 -193.27,171.41 -419.02,298.73 -663.49,389.36 -276.13,102.36 -571.31,142.57 -866.06,142.57 -1264.02,0 -1862.19,-776.65 -1994.36,-1930.27l-24 -209.49 1334.49 -213.38 34.36 223.82c42.67,277.92 145.33,699.84 430.76,842.8 81.02,40.57 169.87,55.93 260.55,55.93 144.06,0 306.75,-18.66 433.94,-88.94 37,-20.44 98.19,-57.08 98.19,-105 -0.86,-37.8 -51.22,-123.81 -79.12,-167.82l-1775.11 -1871.98 -2.95 -3.38c-170.88,-195.24 -308.13,-413.09 -400.4,-653.05 -86.81,-225.73 -134.54,-461.09 -134.54,-702.17 0,-225.93 40.93,-446.74 125.13,-657.48 85.17,-213.19 213.68,-401.1 382.47,-561.33 175.99,-167.05 385.37,-290.96 613.92,-379.24 260.85,-100.74 542.28,-138.96 822.04,-138.96l73.11 0c1234.45,0 1756.7,834.26 1869.31,1932.82l21.26 207.33 -1332.02 213.02 -34.37 -223.82c-38.54,-251.08 -143.36,-762.61 -426.74,-874.13 -44.47,-17.5 -91.35,-24.64 -139.22,-24.64 -125.18,0 -264.93,17.71 -372.77,83.73 -48.11,29.45 -86.24,62.25 -86.27,118.88 1.77,24.3 30.1,73.9 48.49,103.31zm-9397.53 -258.59l0 1334.7 20.28 0c149.18,0 289.31,-32.89 389.5,-145.17 119.77,-134.24 142.64,-362.66 142.64,-531.65 0,-162.65 -21.85,-390.22 -142.57,-516.44 -103.17,-107.87 -240.93,-141.44 -389.57,-141.44l-20.28 0zm4226.58 2442.22l770.51 0 -382.31 -1412.45 -388.2 1412.45zm16508.52 -2442.22l0 1334.7 20.27 0c149.17,0 289.33,-32.89 389.51,-145.17 119.76,-134.24 142.63,-362.67 142.63,-531.65 0,-162.64 -21.85,-390.22 -142.56,-516.44 -103.16,-107.87 -240.94,-141.44 -389.58,-141.44l-20.27 0z"/>
  <path class="fil73" d="M7020.75 28877.42c-640.68,0 -961.02,504.85 -961.02,1514.55l0 3615.99c0,877.18 334.27,1318.92 1002.8,1325.23 626.75,0 999.32,-479.6 1117.71,-1438.82l919.23 132.52c-153.2,1394.65 -887.89,2091.98 -2204.07,2091.98 -1608.66,0 -2412.99,-713.1 -2412.99,-2139.31l0 -3587.59c0,-1546.11 800.86,-2319.16 2402.54,-2319.16 905.31,0 1594.74,334.46 2068.28,1003.39l-961.02 425.97c-201.95,-416.5 -525.77,-624.75 -971.46,-624.75zm4418.58 7222.52c-1239.57,0 -1859.36,-558.49 -1859.36,-1675.48l0 -4411.13 1378.85 0 0 4430.07c0,574.26 163.66,864.55 490.96,870.86 320.34,0 480.5,-343.93 480.5,-1031.79l0 -4269.14 1368.41 0 0 4269.14c0,1211.65 -619.78,1817.47 -1859.36,1817.47zm3927.63 -5282l0 1779.6 250.7 0c243.73,0 431.76,-74.15 564.07,-222.45 132.31,-148.3 198.47,-373.91 198.47,-676.82 0,-302.91 -67.89,-525.36 -203.69,-667.35 -135.8,-141.99 -322.08,-212.98 -558.85,-212.98l-250.7 0zm961.02 3379.34c0,-542.71 -236.78,-814.07 -710.32,-814.07l-250.7 0 0 2688.33 -1389.29 0 0 -6058.21 1451.96 0c1504.2,0 2256.3,552.18 2256.3,1656.54 0,555.34 -243.73,987.62 -731.21,1296.84 222.84,119.9 393.46,283.98 511.84,492.23 118.39,208.25 195,463.83 229.81,766.74l0 1845.86 -1368.39 0 0 -1874.26zm3196.42 -492.23l1368.4 0 -678.98 -2508.48 -689.42 2508.48zm658.08 -5584.91l940.13 0 2151.83 7951.4 -1733.99 0 -438.73 -1571.35 -1796.69 0 -428.27 1571.35 -877.45 0 2183.17 -7951.4zm5264.7 1864.79c974.94,0 1521.6,577.43 1639.99,1732.27l-887.89 141.99c-111.42,-725.72 -376.06,-1088.58 -793.89,-1088.58 -201.95,0 -367.34,39.44 -496.18,118.32 -128.83,78.88 -193.24,181.43 -193.24,307.64 0,63.11 31.34,141.99 94.01,236.65l1786.23 1912.13 0 -9.47c195,189.32 332.53,386.53 412.62,591.62 80.08,205.1 120.13,408.61 120.13,610.56 0,201.94 -43.54,397.56 -130.58,586.88 -87.05,189.32 -212.39,356.55 -376.05,501.7 -163.65,145.14 -360.38,260.31 -590.19,345.51 -229.81,85.19 -490.95,127.79 -783.44,127.79 -1044.58,0 -1633.03,-577.43 -1765.34,-1732.27l887.89 -141.99c111.42,725.72 417.84,1088.58 919.24,1088.58 222.84,0 405.64,-39.44 548.4,-118.32 142.76,-78.88 214.14,-178.28 214.14,-298.18 0,-75.73 -41.78,-176.7 -125.35,-302.91l-1786.24 -1883.72c-160.16,-183.01 -280.29,-378.64 -360.37,-586.89 -80.08,-208.25 -120.13,-416.5 -120.13,-624.75 0,-201.95 36.56,-394.42 109.68,-577.43 73.12,-183.01 182.81,-343.93 329.04,-482.76 146.24,-138.84 325.56,-249.27 537.97,-331.31 212.39,-82.04 457.87,-123.06 736.43,-123.06l73.12 0zm2026.48 28.4l3321.77 0 0 823.54 -950.57 0 0 5234.67 -1389.29 0 0 -5234.67 -981.91 0 0 -823.54zm3781.4 6058.21l0 -6058.21 3018.84 0 0 804.61 -1640 0 0 785.67 1190.83 0 0 804.61 -1190.83 0 0 2877.65 1640 0 0 785.67 -3018.84 0zm4846.86 -5253.6l0 1779.6 250.7 0c243.73,0 431.76,-74.15 564.07,-222.45 132.31,-148.3 198.47,-373.91 198.47,-676.82 0,-302.91 -67.89,-525.36 -203.69,-667.35 -135.8,-141.99 -322.08,-212.98 -558.85,-212.98l-250.7 0zm961.02 3379.34c0,-542.71 -236.78,-814.07 -710.32,-814.07l-250.7 0 0 2688.33 -1389.29 0 0 -6058.21 1451.96 0c1504.2,0 2256.3,552.18 2256.3,1656.54 0,555.34 -243.73,987.62 -731.21,1296.84 222.84,119.9 393.46,283.98 511.84,492.23 118.39,208.25 194.99,463.83 229.81,766.74l0 1845.86 -1368.39 0 0 -1874.26z"/>
  <g id="_2085227694400">
   <path class="fil74" d="M10475.73 37512.24c64.3,0 115.11,17.29 152.43,51.88l-3.1 15.56c0,25.94 -156.58,265.42 -469.74,718.45 -132.72,214.41 -199.08,327.67 -199.08,339.77l-9.34 632.87c-14.52,6.91 -26.95,10.37 -37.33,10.37l-49.77 0c-153.46,-8.65 -246.79,-22.48 -279.97,-41.5 -31.11,-17.29 -46.67,-62.25 -46.67,-134.87l6.23 -518.74c-39.4,-58.79 -103.69,-163.83 -192.88,-315.13 -89.17,-151.3 -205.3,-351.45 -348.4,-600.44 0,-58.79 139.99,-102.88 419.96,-132.28 41.47,0 78.8,57.93 111.98,173.78 155.54,325.07 264.42,532.57 326.64,622.48 60.14,-100.29 136.36,-217.43 228.64,-351.44 92.29,-134.01 201.68,-287.47 328.19,-460.38 14.52,-6.92 26.97,-10.38 37.33,-10.38l24.88 0zm531.95 20.75c114.07,0 239.54,26.8 376.41,80.41 188.72,0 320.41,120.17 395.07,360.52 74.66,171.18 111.99,309.51 111.99,414.99l3.11 77.81c-4.14,150.44 -58.07,331.13 -161.76,542.08 -70.51,115.85 -185.61,194.53 -345.3,236.03 -95.4,25.94 -144.13,38.04 -146.21,36.31l-93.32 0c-228.12,0 -408.55,-81.27 -541.28,-243.81 -124.43,-146.97 -186.64,-334.58 -186.64,-562.83l0 -64.84c0,-307.78 111.98,-569.75 335.95,-785.89 72.59,-60.52 147.25,-90.78 223.99,-90.78l27.99 0zm174.21 1595.12c103.7,0 202.2,-59.65 295.52,-178.96 111.99,-141.79 167.99,-330.27 167.99,-565.43l-3.11 -44.09c0,-136.6 -57.03,-299.14 -171.1,-487.61 -103.69,-77.81 -195.98,-116.72 -276.86,-116.72 -109.91,53.6 -194.94,179.83 -255.09,378.68 -43.55,148.7 -65.33,298.27 -65.33,448.71 12.45,245.53 25.93,368.3 40.45,368.3 56,131.42 145.17,197.12 267.53,197.12zm1113.66 -1628.84c29.04,0 91.25,14.7 186.65,44.1 109.92,34.58 164.88,68.3 164.88,101.15 -97.48,269.75 -146.22,568.88 -146.22,897.42l0 5.19c0,295.68 52.89,464.27 158.65,505.77l46.67 0c101.62,0 188.72,-83 261.31,-249l-6.23 -1006.35 6.23 -215.28c2.07,-22.48 14.51,-33.71 37.32,-33.71l62.23 0c178.34,0 281,52.73 307.96,158.21l-24.89 697.7c0,340.64 38.37,615.57 115.11,824.8 -39.4,27.66 -91.25,41.5 -155.55,41.5 -130.65,0 -230.2,-47.56 -298.63,-142.66 -141.02,102.02 -232.27,153.03 -273.75,153.03l-59.1 0c-246.8,0 -418.93,-89.91 -516.4,-269.74 -37.33,-83 -55.99,-216.14 -55.99,-399.43l0 -90.78c0,-202.31 27.99,-523.06 83.99,-962.26 37.33,-39.77 70.51,-59.66 99.54,-59.66l6.22 0zm1791.83 90.78c412.69,0 655.33,57.07 727.92,171.19 111.99,124.49 167.98,236.02 167.98,334.58 0,131.42 -134.79,283.58 -404.4,456.49 58.07,79.54 130.66,164.7 217.76,255.48 87.1,90.78 189.75,188.04 307.96,291.79 39.41,36.31 76.74,54.47 112,54.47l37.32 0 -3.1 5.19c-47.7,81.27 -121.33,121.9 -220.87,121.9l-59.1 0c-95.4,0 -282.06,-126.23 -559.95,-378.68l-286.2 -248.99 -15.55 552.45c-18.67,19.02 -43.55,28.53 -74.66,28.53l-152.43 0c-93.33,0 -139.98,-97.69 -139.98,-293.08l0 -121.91c0,-69.16 2.07,-186.74 6.22,-352.74 4.14,-165.99 10.37,-382.14 18.67,-648.42 -53.93,-55.33 -86.07,-104.61 -96.45,-147.84l0 -15.56c0,-39.77 56,-61.39 167.99,-64.85l248.87 0zm423.06 663.99c114.06,-57.06 173.17,-108.07 177.32,-153.03 0,-72.62 -32.14,-133.14 -96.43,-181.56 -64.3,-48.41 -147.25,-72.62 -248.87,-72.62 -51.85,0 -103.7,5.19 -155.53,15.56 -4.15,60.52 -9.35,120.18 -15.56,178.97 -6.22,58.79 -12.45,115.85 -18.67,171.18 -4.14,55.33 -7.78,95.53 -10.88,120.61 -3.12,25.07 -4.67,35.01 -4.67,29.82 130.65,-12.1 255.08,-48.41 373.29,-108.93zm2553.96 -472.05c0,36.31 -68.44,54.46 -205.31,54.46 -120.28,12.11 -227.6,24.21 -321.97,36.32 -94.36,12.1 -177.83,24.2 -250.42,36.31l3.11 5.19 -9.33 389.05 31.11 -5.19 466.61 -5.19c70.52,0 123.41,38.91 158.66,116.72l0 10.37c0,43.23 -66.36,64.85 -199.1,64.85 -87.1,10.37 -169.53,22.91 -247.3,37.61 -77.78,14.69 -149.83,31.55 -216.21,50.57l-9.33 28.53 0 163.41 12.45 485.02c-22.81,20.75 -61.18,31.12 -115.1,31.12l-40.45 0c-87.09,0 -161.75,-30.26 -223.97,-90.78l-9.33 -36.31c4.14,-352.74 8.82,-633.73 14,-842.95 5.18,-209.22 10.89,-350.15 17.1,-422.77 -53.91,-32.85 -82.95,-66.57 -87.1,-101.16l0 -15.56c0,-57.06 99.55,-85.59 298.64,-85.59 151.39,-13.83 293.97,-24.21 427.74,-31.12 133.77,-6.92 259.75,-10.38 377.96,-10.38 56,0 98.5,38.91 127.54,116.72l0 20.75zm1247.43 1078.97l65.33 184.15c4.15,10.38 8.81,20.75 14,31.13 5.18,10.37 10.89,20.75 17.11,31.12l31.1 57.06c14.52,38.04 1.04,69.17 -40.44,93.38 -35.25,19.02 -91.25,26.8 -167.97,23.34 -105.78,-1.73 -199.1,-82.13 -279.99,-241.21 -10.36,-19.02 -20.73,-42.37 -31.1,-70.03 -10.37,-27.67 -22.81,-59.66 -37.33,-95.97 -4.15,-17.29 -8.29,-31.56 -12.44,-42.8 -4.15,-11.23 -8.3,-21.18 -12.45,-29.82 -240.57,27.66 -443.8,71.76 -609.71,132.28 -14.51,12.1 -46.67,102.88 -96.43,272.33 -29.04,39.77 -71.56,51.01 -127.55,33.72 -55.99,-19.02 -88.13,-51.01 -96.43,-95.97l0 -41.49c2.07,-19.03 8.81,-47.99 20.22,-86.89 11.4,-38.91 27.48,-86.03 48.21,-141.36 60.15,-164.27 123.92,-324.21 191.31,-479.83 67.41,-155.62 139.48,-309.52 216.2,-461.68 58.08,-115.85 107.85,-198.85 149.32,-248.99 -8.3,-39.77 -13.48,-70.9 -15.55,-93.38 -2.08,-22.47 -2.08,-37.17 0,-44.09 10.37,-34.58 50.82,-45.82 121.33,-33.72 184.57,29.4 274.79,63.98 270.64,103.75 126.49,482.43 229.16,830.85 307.96,1045.26l74.66 199.71zm-681.27 -791.07c-165.91,316.43 -265.44,519.6 -298.63,609.51 182.5,-51.87 341.15,-77.81 475.95,-77.81 -22.82,-82.99 -48.73,-168.59 -77.77,-256.77 -29.04,-88.19 -60.14,-179.83 -93.32,-274.93l-6.23 0zm2603.74 -627.68c105.76,8.65 215.68,52.74 329.74,132.28l18.67 25.94c-24.89,210.95 -37.33,580.12 -37.33,1107.5 0,34.59 0.52,72.63 1.55,114.13 1.04,41.5 2.6,87.32 4.68,137.46l6.21 236.03c-12.44,57.06 -42.51,85.59 -90.2,85.59l-31.12 0c-161.76,-22.48 -242.64,-45.82 -242.64,-70.03 -26.96,-5.19 -43.55,-51.01 -49.78,-137.47l9.34 -700.29c0,-44.96 1.56,-102.88 4.66,-173.78 3.12,-70.89 6.74,-156.48 10.89,-256.77l0 -5.19 -6.22 0c-141.03,290.49 -262.34,608.65 -363.96,954.48 -16.59,60.52 -36.3,90.78 -59.11,90.78 -14.51,19.02 -30.07,35.44 -46.65,49.28l-12.45 0c-286.2,-41.5 -431.37,-80.41 -435.51,-116.72 -24.89,0 -160.73,-333.72 -407.52,-1001.16l-12.44 0c-6.22,44.95 -12.45,105.47 -18.67,181.55 -6.22,76.09 -11.41,168.59 -15.55,277.53 2.08,17.29 5.19,89.05 9.33,215.27 4.15,88.19 7.78,173.78 10.9,256.78 3.1,83 6.74,166 10.87,248.99 -12.43,67.44 -26.96,101.16 -43.55,101.16 -118.21,-22.48 -177.31,-71.76 -177.31,-147.84 -2.08,-36.31 -4.15,-105.91 -6.23,-208.79 -2.07,-102.89 -4.13,-240.79 -6.21,-413.7l0 -158.21c2.08,-458.22 13.48,-687.33 34.22,-687.33 35.25,-44.96 76.72,-67.44 124.42,-67.44l335.97 -5.18c62.22,0 112,76.08 149.32,228.24 248.87,667.44 373.29,1002.03 373.29,1003.76l31.12 0c39.4,-129.69 101.62,-297.84 186.64,-504.47 85.04,-206.63 192.87,-453.47 323.53,-740.5 22.82,-34.58 47.7,-51.88 74.65,-51.88l12.45 0zm796.37 127.09c134.8,0 230.2,37.18 286.2,111.53l-18.68 495.4c0,532.57 12.45,879.26 37.34,1040.07l0 5.19c-12.45,39.77 -37.34,59.65 -74.66,59.65l-46.67 0c-114.06,0 -195.98,-30.26 -245.75,-90.78 -31.1,0 -54.96,-520.47 -71.54,-1561.4 22.81,-39.77 54.95,-59.66 96.43,-59.66l37.33 0zm749.71 -15.56c134.79,0 238.49,38.91 311.08,116.72l6.21 10.37c-29.03,584.45 -41.48,905.2 -37.33,962.26l6.23 378.68c68.44,-6.92 138.43,-11.67 209.97,-14.26 71.56,-2.6 145.69,-3.89 222.43,-3.89 151.39,0 243.67,16.42 276.86,49.28l0 20.74c0,65.71 -53.92,101.16 -161.76,106.35 -176.28,19.02 -411.67,52.73 -706.15,101.15l-37.34 0c-55.99,0 -104.73,-22.48 -146.2,-67.44 -39.4,-43.22 -59.11,-96.83 -59.11,-160.8l0 -1413.57c14.51,-57.06 44.59,-85.59 90.22,-85.59l24.89 0zm2401.52 -41.5c64.3,0 115.1,17.29 152.43,51.88l-3.11 15.56c0,25.94 -156.58,265.42 -469.73,718.45 -132.72,214.41 -199.08,327.67 -199.08,339.77l-9.35 632.87c-14.51,6.91 -26.95,10.37 -37.32,10.37l-49.78 0c-153.46,-8.65 -246.78,-22.48 -279.97,-41.5 -31.11,-17.29 -46.66,-62.25 -46.66,-134.87l6.22 -518.74c-39.4,-58.79 -103.68,-163.83 -192.87,-315.13 -89.17,-151.3 -205.31,-351.45 -348.4,-600.44 0,-58.79 139.99,-102.88 419.96,-132.28 41.47,0 78.79,57.93 111.98,173.78 155.54,325.07 264.41,532.57 326.64,622.48 60.13,-100.29 136.35,-217.43 228.63,-351.44 92.3,-134.01 201.69,-287.47 328.2,-460.38 14.51,-6.92 26.96,-10.38 37.32,-10.38l24.89 0zm1269.2 95.97c391.97,0 651.2,96.83 777.7,290.49 95.39,176.37 143.09,304.33 143.09,383.87l0 51.87c-2.07,302.6 -195.97,584.45 -581.72,845.55 -122.34,67.43 -237.45,101.15 -345.29,101.15l-205.31 0c-118.21,-34.58 -204.28,-85.59 -258.2,-153.03 -10.37,-13.83 -17.62,-65.7 -21.77,-155.62 4.15,-127.95 7.25,-280.12 9.33,-456.49 2.07,-176.37 4.15,-380.41 6.22,-612.11 -20.73,0 -70.51,-79.54 -149.32,-238.62l3.11 -15.56c16.6,-25.94 70.51,-39.77 161.77,-41.5l460.39 0zm-133.77 1364.28l12.45 0c365,0 628.38,-219.6 790.15,-658.8 16.59,-46.68 24.87,-87.32 24.87,-121.9 4.15,-103.75 -65.31,-187.61 -208.41,-251.59 -141.02,-62.25 -320.41,-93.37 -538.17,-93.37 -29.04,13.83 -43.55,31.12 -43.55,51.87 -8.3,186.75 -15.04,368.31 -20.22,544.68 -5.18,176.37 -8.82,349.28 -10.89,518.74l-6.23 10.37zm1773.15 -1439.5c114.08,0 239.54,26.8 376.42,80.41 188.72,0 320.41,120.17 395.07,360.52 74.66,171.18 111.98,309.51 111.98,414.99l3.11 77.81c-4.14,150.44 -58.06,331.13 -161.76,542.08 -70.51,115.85 -185.6,194.53 -345.3,236.03 -95.4,25.94 -144.13,38.04 -146.2,36.31l-93.32 0c-228.12,0 -408.56,-81.27 -541.28,-243.81 -124.44,-146.97 -186.65,-334.58 -186.65,-562.83l0 -64.84c0,-307.78 111.99,-569.75 335.96,-785.89 72.58,-60.52 147.25,-90.78 223.98,-90.78l27.99 0zm174.21 1595.12c103.7,0 202.21,-59.65 295.53,-178.96 111.98,-141.79 167.98,-330.27 167.98,-565.43l-3.1 -44.09c0,-136.6 -57.03,-299.14 -171.11,-487.61 -103.68,-77.81 -195.97,-116.72 -276.86,-116.72 -109.91,53.6 -194.93,179.83 -255.08,378.68 -43.55,148.7 -65.33,298.27 -65.33,448.71 12.45,245.53 25.93,368.3 40.44,368.3 56,131.42 145.17,197.12 267.53,197.12zm1667.39 -1514.71c259.24,67.43 397.15,152.16 413.74,254.18l12.44 46.69c14.52,164.26 -7.26,312.1 -65.32,443.52 -18.68,34.58 -39.41,53.6 -62.22,57.06l-28 5.18c-95.4,-5.18 -189.76,-30.25 -283.09,-75.21l-21.76 -20.75c89.17,-290.49 130.64,-459.08 124.42,-505.77l-6.21 -25.94c-10.38,-41.5 -57.03,-59.65 -139.99,-54.47 -39.4,8.65 -75.7,31.99 -108.88,70.03 -35.25,43.23 -69.47,93.38 -102.66,150.44 -163.83,302.6 -227.09,585.31 -189.75,848.13 18.66,127.96 59.1,215.28 121.32,261.97 53.92,39.77 121.31,46.68 202.2,20.75 155.53,-51.88 286.19,-172.05 391.95,-360.53 56,-10.37 87.11,12.11 93.33,67.44 14.52,103.75 -58.07,219.6 -217.75,347.55 -134.81,72.63 -258.2,116.72 -370.19,132.28 -153.47,20.75 -272.71,-14.69 -357.74,-106.34 -145.18,-162.54 -213.61,-387.32 -205.31,-674.36 6.22,-248.99 64.28,-477.24 174.21,-684.73 87.09,-162.54 192.87,-252.45 317.29,-269.75l34.22 -2.59c72.58,-6.92 163.83,18.16 273.75,75.22zm1742.04 -124.5c122.36,0 199.1,38.91 230.21,116.72l-3.12 33.71c0,44.96 -79.84,71.76 -239.52,80.41l-283.09 15.56 3.12 5.19c-29.04,157.35 -50.82,323.78 -65.33,499.28 -14.52,175.51 -22.82,361.82 -24.89,558.94 4.15,186.75 13.48,330.27 27.99,430.56 -18.66,34.58 -49.77,51.87 -93.32,51.87l-37.32 0c-134.8,0 -228.14,-44.09 -279.97,-132.28 0,-17.29 -2.08,-25.94 -6.23,-25.94l9.33 -75.21c-4.15,-689.92 2.08,-1117.02 18.66,-1281.28l-348.4 31.12c-105.77,-20.75 -158.65,-57.93 -158.65,-111.53l0 -15.56c0,-69.17 236.42,-118.45 709.26,-147.84 95.39,-12.11 186.13,-20.75 272.19,-25.94 86.07,-5.19 168.5,-7.78 247.31,-7.78l21.77 0zm815.04 44.09c114.07,0 239.53,26.8 376.41,80.41 188.72,0 320.41,120.17 395.07,360.52 74.66,171.18 111.99,309.51 111.99,414.99l3.1 77.81c-4.14,150.44 -58.06,331.13 -161.76,542.08 -70.51,115.85 -185.6,194.53 -345.3,236.03 -95.39,25.94 -144.13,38.04 -146.2,36.31l-93.32 0c-228.12,0 -408.56,-81.27 -541.28,-243.81 -124.43,-146.97 -186.65,-334.58 -186.65,-562.83l0 -64.84c0,-307.78 111.99,-569.75 335.96,-785.89 72.59,-60.52 147.25,-90.78 223.98,-90.78l28 0zm174.2 1595.12c103.7,0 202.21,-59.65 295.53,-178.96 111.99,-141.79 167.98,-330.27 167.98,-565.43l-3.1 -44.09c0,-136.6 -57.03,-299.14 -171.1,-487.61 -103.69,-77.81 -195.98,-116.72 -276.87,-116.72 -109.91,53.6 -194.93,179.83 -255.08,378.68 -43.55,148.7 -65.33,298.27 -65.33,448.71 12.45,245.53 25.93,368.3 40.44,368.3 56,131.42 145.17,197.12 267.53,197.12zm1312.76 -1538.06c412.7,0 655.34,57.07 727.93,171.19 111.98,124.49 167.98,236.02 167.98,334.58 0,131.42 -134.8,283.58 -404.4,456.49 58.07,79.54 130.66,164.7 217.76,255.48 87.09,90.78 189.75,188.04 307.96,291.79 39.41,36.31 76.73,54.47 112,54.47l37.32 0 -3.11 5.19c-47.7,81.27 -121.33,121.9 -220.86,121.9l-59.11 0c-95.39,0 -282.05,-126.23 -559.95,-378.68l-286.19 -248.99 -15.56 552.45c-18.66,19.02 -43.55,28.53 -74.66,28.53l-152.43 0c-93.32,0 -139.97,-97.69 -139.97,-293.08l0 -121.91c0,-69.16 2.07,-186.74 6.22,-352.74 4.14,-165.99 10.36,-382.14 18.66,-648.42 -53.92,-55.33 -86.06,-104.61 -96.44,-147.84l0 -15.56c0,-39.77 56,-61.39 167.99,-64.85l248.86 0zm423.07 663.99c114.06,-57.06 173.17,-108.07 177.32,-153.03 0,-72.62 -32.15,-133.14 -96.43,-181.56 -64.3,-48.41 -147.25,-72.62 -248.87,-72.62 -51.85,0 -103.7,5.19 -155.54,15.56 -4.15,60.52 -9.34,120.18 -15.55,178.97 -6.23,58.79 -12.45,115.85 -18.68,171.18 -4.14,55.33 -7.77,95.53 -10.88,120.61 -3.11,25.07 -4.66,35.01 -4.66,29.82 130.65,-12.1 255.08,-48.41 373.29,-108.93z"/>
   <polygon class="fil72" points="8596.73,38241.8 8596.73,38563.76 3791.44,38385.46 "/>
   <polygon class="fil72" points="34489.22,38241.8 34489.22,38563.76 39294.51,38385.46 "/>
  </g>
 </g>
</svg>
